<svg width="49" height="48" viewBox="0 0 49 48" fill="none" xmlns="http://www.w3.org/2000/svg">
<path fill-rule="evenodd" clip-rule="evenodd" d="M22.388 0.5H26.612C30.288 0.5 33.2 0.5 35.478 0.806C37.822 1.122 39.72 1.786 41.218 3.282C42.714 4.78 43.378 6.678 43.694 9.022C44 11.302 44 14.212 44 17.888V26.112C44 29.788 44 32.7 43.694 34.978C43.378 37.322 42.714 39.22 41.218 40.718C39.72 42.214 37.822 42.878 35.478 43.194C33.198 43.5 30.288 43.5 26.612 43.5H22.388C18.712 43.5 15.8 43.5 13.522 43.194C11.178 42.878 9.28 42.214 7.782 40.718C6.286 39.22 5.622 37.322 5.306 34.978C5 32.698 5 29.788 5 26.112V17.888C5 14.212 5 11.3 5.306 9.022C5.622 6.678 6.286 4.78 7.782 3.282C9.28 1.786 11.178 1.122 13.522 0.806C15.802 0.5 18.712 0.5 22.388 0.5ZM13.92 3.78C11.908 4.05 10.748 4.558 9.9 5.404C9.056 6.25 8.548 7.41 8.278 9.422C8.002 11.478 7.998 14.186 7.998 18V26C7.998 29.814 8.002 32.524 8.278 34.58C8.548 36.59 9.056 37.75 9.902 38.596C10.748 39.442 11.908 39.95 13.92 40.22C15.976 40.496 18.684 40.5 22.498 40.5H26.498C30.312 40.5 33.022 40.496 35.078 40.22C37.088 39.95 38.248 39.442 39.094 38.596C39.94 37.75 40.448 36.59 40.718 34.578C40.994 32.524 40.998 29.814 40.998 26V18C40.998 14.186 40.994 11.478 40.718 9.42C40.448 7.41 39.94 6.25 39.094 5.404C38.248 4.558 37.088 4.05 35.076 3.78C33.022 3.504 30.312 3.5 26.498 3.5H22.498C18.684 3.5 15.978 3.504 13.92 3.78ZM15 14C15 13.6022 15.158 13.2206 15.4393 12.9393C15.7206 12.658 16.1022 12.5 16.5 12.5H32.5C32.8978 12.5 33.2794 12.658 33.5607 12.9393C33.842 13.2206 34 13.6022 34 14C34 14.3978 33.842 14.7794 33.5607 15.0607C33.2794 15.342 32.8978 15.5 32.5 15.5H16.5C16.1022 15.5 15.7206 15.342 15.4393 15.0607C15.158 14.7794 15 14.3978 15 14ZM15 22C15 21.6022 15.158 21.2206 15.4393 20.9393C15.7206 20.658 16.1022 20.5 16.5 20.5H26.5C26.8978 20.5 27.2794 20.658 27.5607 20.9393C27.842 21.2206 28 21.6022 28 22C28 22.3978 27.842 22.7794 27.5607 23.0607C27.2794 23.342 26.8978 23.5 26.5 23.5H16.5C16.1022 23.5 15.7206 23.342 15.4393 23.0607C15.158 22.7794 15 22.3978 15 22Z" fill="#D7D7D7"/>
<circle cx="38" cy="38" r="9" fill="#D7D7D7"/>
<path d="M38 34V42M42 38H34" stroke="white" stroke-width="2" stroke-linecap="round" stroke-linejoin="round"/>
</svg>
