<svg width="19" height="22" viewBox="0 0 19 22" fill="none" xmlns="http://www.w3.org/2000/svg">
<path d="M12.6875 15.875V16.9375C12.6875 17.7829 12.3517 18.5936 11.7539 19.1914C11.1561 19.7892 10.3454 20.125 9.5 20.125C8.65462 20.125 7.84387 19.7892 7.2461 19.1914C6.64832 18.5936 6.3125 17.7829 6.3125 16.9375V15.875M12.6875 15.875H6.3125M12.6875 15.875H16.5019C16.9088 15.875 17.1128 15.875 17.2775 15.8197C17.4324 15.7673 17.5731 15.6798 17.6887 15.5641C17.8042 15.4483 17.8915 15.3075 17.9437 15.1525C18 14.9867 18 14.7828 18 14.3726C18 14.1931 18 14.1038 17.9851 14.0177C17.959 13.8568 17.8961 13.7041 17.8013 13.5715C17.7503 13.5003 17.6866 13.4366 17.5601 13.3101L17.1457 12.8958C17.0797 12.8296 17.0273 12.7511 16.9915 12.6647C16.9558 12.5782 16.9374 12.4856 16.9375 12.3921V8.4375C16.9375 7.46079 16.7451 6.49365 16.3714 5.59129C15.9976 4.68893 15.4497 3.86903 14.7591 3.17839C14.0685 2.48776 13.2486 1.93992 12.3462 1.56615C11.4438 1.19238 10.4767 1 9.5 1C8.52329 1 7.55615 1.19238 6.65379 1.56615C5.75143 1.93992 4.93153 2.48776 4.24089 3.17839C3.55026 3.86903 3.00242 4.68893 2.62865 5.59129C2.25488 6.49365 2.0625 7.46079 2.0625 8.4375V12.3921C2.06257 12.4856 2.04421 12.5782 2.00848 12.6647C1.97274 12.7511 1.92034 12.8296 1.85425 12.8958L1.43988 13.3101C1.31238 13.4376 1.24969 13.5003 1.19975 13.5704C1.10415 13.7032 1.04052 13.8563 1.01381 14.0177C1 14.1027 1 14.1931 1 14.3726C1 14.7828 1 14.9867 1.05525 15.1525C1.10767 15.3077 1.19526 15.4487 1.3112 15.5645C1.42713 15.6802 1.56826 15.7676 1.72356 15.8197C1.88825 15.875 2.09119 15.875 2.49812 15.875H6.3125" stroke="#231916" stroke-width="2" stroke-linecap="round" stroke-linejoin="round"/>
</svg>
