<svg xmlns="http://www.w3.org/2000/svg" width="24" height="24" fill="none"><path fill="#D9D9D9" fill-rule="evenodd" stroke="#D9D9D9" stroke-width=".347" d="M8.279 4a.558.558 0 0 1 .558.558v.568c.492-.01 1.035-.01 1.633-.01h3.06c.597 0 1.14 0 1.632.01v-.568a.558.558 0 1 1 1.117 0v.616c.193.014.376.033.55.056.872.118 1.578.365 2.135.921.557.558.804 1.264.922 2.136.037.28.062.584.08.915.04.11.045.23.013.343.02.596.02 1.274.02 2.041v1.572c0 1.367 0 2.45-.113 3.298-.118.873-.365 1.579-.922 2.136-.557.557-1.263.804-2.136.922-.848.113-1.93.113-3.298.113h-3.06c-1.368 0-2.452 0-3.3-.113-.872-.118-1.578-.365-2.135-.922-.557-.557-.804-1.263-.921-2.136C4 15.608 4 14.526 4 13.158v-1.572c0-.767 0-1.445.02-2.042a.558.558 0 0 1 .015-.342c.016-.331.041-.636.079-.915.117-.872.364-1.578.92-2.136.558-.556 1.264-.803 2.137-.92.173-.024.357-.043.55-.057v-.616A.558.558 0 0 1 8.279 4ZM5.126 9.953c-.01.486-.01 1.04-.01 1.675v1.488c0 1.42.002 2.427.104 3.192.1.748.29 1.18.604 1.495.315.314.747.503 1.495.604.766.103 1.773.104 3.192.104h2.977c1.42 0 2.427-.001 3.192-.104.748-.1 1.18-.29 1.495-.604.314-.315.503-.747.604-1.495.103-.765.104-1.773.104-3.192v-1.488c0-.636 0-1.189-.01-1.675H5.127Zm13.696-1.116H5.177c.012-.141.026-.275.043-.402.1-.748.29-1.18.604-1.494.315-.315.747-.504 1.495-.604.766-.103 1.773-.105 3.192-.105h2.977c1.42 0 2.427.002 3.192.105.748.1 1.18.29 1.495.604.314.315.503.746.604 1.495.017.126.031.26.043.401Z" clip-rule="evenodd"/></svg>