<svg width="24" height="24" viewBox="0 0 24 24" fill="none" xmlns="http://www.w3.org/2000/svg">
<path fill-rule="evenodd" clip-rule="evenodd" d="M19.3305 7.26734C19.5017 7.43856 19.5978 7.67077 19.5978 7.91288C19.5978 8.155 19.5017 8.3872 19.3305 8.55843L10.6563 17.2327C10.485 17.4038 10.2528 17.5 10.0107 17.5C9.76859 17.5 9.53639 17.4038 9.36516 17.2327L5.25631 13.1238C5.08999 12.9516 4.99795 12.721 5.00003 12.4816C5.00211 12.2421 5.09814 12.0131 5.26743 11.8438C5.43673 11.6746 5.66574 11.5785 5.90514 11.5764C6.14455 11.5744 6.37519 11.6664 6.5474 11.8327L10.0107 15.296L18.0394 7.26734C18.2106 7.09616 18.4428 7 18.6849 7C18.9271 7 19.1593 7.09616 19.3305 7.26734Z" fill="#FF9900"/>
<path fill-rule="evenodd" clip-rule="evenodd" d="M18.2161 7.44414L10.0107 15.6496L6.37229 12.0112C6.24739 11.8913 6.08051 11.8249 5.90732 11.8264C5.73346 11.8279 5.56715 11.8977 5.44421 12.0206C5.32127 12.1436 5.25154 12.3099 5.25003 12.4837C5.24852 12.6569 5.31484 12.8238 5.43474 12.9487L9.54191 17.0559C9.66625 17.1802 9.83489 17.25 10.0107 17.25C10.1865 17.25 10.3551 17.1802 10.4795 17.0559M19.1537 8.38165L10.4795 17.0559L19.1537 8.38165ZM19.1537 8.38165C19.278 8.25731 19.3478 8.08869 19.3478 7.91288C19.3478 7.73708 19.278 7.56848 19.1537 7.44414M19.1537 7.44414C19.0294 7.31987 18.8607 7.25 18.6849 7.25C18.5091 7.25 18.3405 7.31985 18.2161 7.44414M17.8626 7.09053C18.0808 6.87249 18.3765 6.75 18.6849 6.75C18.9933 6.75 19.2891 6.87249 19.5072 7.09053C19.7253 7.30864 19.8478 7.60448 19.8478 7.91288C19.8478 8.22129 19.7253 8.51707 19.5073 8.73518L10.833 17.4094C10.6149 17.6275 10.3191 17.75 10.0107 17.75C9.7023 17.75 9.40652 17.6275 9.18841 17.4095L5.07646 13.2975C4.8646 13.0782 4.74739 12.7843 4.75004 12.4794C4.75269 12.1744 4.87501 11.8827 5.09066 11.6671C5.3063 11.4514 5.59802 11.3291 5.90297 11.3265C6.20793 11.3238 6.50172 11.441 6.72108 11.6529L6.72421 11.6559L10.0107 14.9425L17.8626 7.09053Z" fill="#FF9900"/>
</svg>
