<svg width="24" height="24" viewBox="0 0 24 24" fill="none" xmlns="http://www.w3.org/2000/svg">
<circle cx="12" cy="12" r="10" fill="#A3A3A3"/>
<g clip-path="url(#clip0_926_10837)">
<path fill-rule="evenodd" clip-rule="evenodd" d="M9.56764 8.49814C9.32588 8.25638 8.93392 8.25638 8.69217 8.49814C8.45042 8.73989 8.45042 9.13185 8.69217 9.3736L11.3186 12L8.69217 14.6264C8.45042 14.8681 8.45042 15.2601 8.69217 15.5019C8.93392 15.7436 9.32588 15.7436 9.56764 15.5019L12.194 12.8755L14.8204 15.5019C15.0622 15.7436 15.4541 15.7436 15.6959 15.5019C15.9376 15.2601 15.9376 14.8681 15.6959 14.6264L13.0695 12L15.6959 9.3736C15.9376 9.13185 15.9376 8.73989 15.6959 8.49814C15.4541 8.25638 15.0622 8.25639 14.8204 8.49814L12.194 11.1245L9.56764 8.49814Z" fill="white"/>
</g>
<defs>
<clipPath id="clip0_926_10837">
<rect width="13" height="13" fill="white" transform="translate(5 5)"/>
</clipPath>
</defs>
</svg>
