<svg width="24" height="24" viewBox="0 0 24 24" fill="none" xmlns="http://www.w3.org/2000/svg">
<circle cx="12" cy="12" r="10" fill="white"/>
<g clip-path="url(#clip0_1242_20355)">
<path fill-rule="evenodd" clip-rule="evenodd" d="M9.56776 8.49814C9.326 8.25638 8.93405 8.25638 8.69229 8.49814C8.45054 8.73989 8.45054 9.13185 8.69229 9.3736L11.3187 12L8.69229 14.6264C8.45054 14.8681 8.45054 15.2601 8.69229 15.5019C8.93405 15.7436 9.326 15.7436 9.56776 15.5019L12.1942 12.8755L14.8206 15.5019C15.0623 15.7436 15.4543 15.7436 15.696 15.5019C15.9378 15.2601 15.9378 14.8681 15.696 14.6264L13.0696 12L15.696 9.3736C15.9378 9.13185 15.9378 8.73989 15.696 8.49814C15.4543 8.25638 15.0623 8.25639 14.8206 8.49814L12.1942 11.1245L9.56776 8.49814Z" fill="#545454"/>
</g>
<defs>
<clipPath id="clip0_1242_20355">
<rect width="13" height="13" fill="white" transform="translate(5 5)"/>
</clipPath>
</defs>
</svg>
