<svg width="25" height="24" viewBox="0 0 25 24" fill="none" xmlns="http://www.w3.org/2000/svg">
<g id="ico/close" clip-path="url(#clip0_1660_2034)">
<path id="Union" fill-rule="evenodd" clip-rule="evenodd" d="M8.00957 5.53502C7.56325 5.08871 6.83964 5.08871 6.39332 5.53502C5.94701 5.98134 5.94701 6.70495 6.39332 7.15127L11.2421 12L6.39332 16.8487C5.94701 17.295 5.94701 18.0187 6.39332 18.465C6.83964 18.9113 7.56325 18.9113 8.00957 18.465L12.8583 13.6162L17.707 18.465C18.1533 18.9113 18.877 18.9113 19.3233 18.465C19.7696 18.0187 19.7696 17.295 19.3233 16.8487L14.4745 12L19.3233 7.15127C19.7696 6.70495 19.7696 5.98134 19.3233 5.53502C18.877 5.08871 18.1533 5.08871 17.707 5.53502L12.8583 10.3838L8.00957 5.53502Z" fill="#A3A3A3"/>
</g>
<defs>
<clipPath id="clip0_1660_2034">
<rect width="24" height="24" fill="white" transform="translate(0.5)"/>
</clipPath>
</defs>
</svg>
