<svg width="24" height="24" viewBox="0 0 24 24" fill="none" xmlns="http://www.w3.org/2000/svg">
<circle cx="12" cy="12" r="10" fill="#A3A3A3"/>
<path d="M11.8667 6.6665C10.1035 6.6665 8.66669 8.1033 8.66669 9.8665C8.66669 10.0256 8.7299 10.1782 8.84242 10.2908C8.95494 10.4033 9.10756 10.4665 9.26669 10.4665C9.42582 10.4665 9.57843 10.4033 9.69095 10.2908C9.80347 10.1782 9.86669 10.0256 9.86669 9.8665C9.86669 8.7657 10.7659 7.8665 11.8667 7.8665C12.9675 7.8665 13.8667 8.7657 13.8667 9.8665C13.8667 10.3441 13.7419 10.6465 13.5723 10.8825C13.3867 11.1425 13.1347 11.3465 12.7971 11.6185L12.7891 11.6249C12.4691 11.8833 12.0747 12.2041 11.7731 12.6553C11.4603 13.1257 11.2667 13.7057 11.2667 14.4665V14.8665C11.2667 15.0256 11.3299 15.1782 11.4424 15.2908C11.5549 15.4033 11.7076 15.4665 11.8667 15.4665C12.0258 15.4665 12.1784 15.4033 12.291 15.2908C12.4035 15.1782 12.4667 15.0256 12.4667 14.8665V14.4665C12.4667 13.9273 12.5979 13.5825 12.7723 13.3209C12.9587 13.0417 13.2139 12.8249 13.5435 12.5585L13.5979 12.5145C13.8971 12.2729 14.2651 11.9769 14.5483 11.5809C14.8667 11.1369 15.0667 10.5889 15.0667 9.8665C15.0667 8.1033 13.6299 6.6665 11.8667 6.6665ZM11.8667 17.8665C12.0789 17.8665 12.2823 17.7822 12.4324 17.6322C12.5824 17.4822 12.6667 17.2787 12.6667 17.0665C12.6667 16.8543 12.5824 16.6508 12.4324 16.5008C12.2823 16.3508 12.0789 16.2665 11.8667 16.2665C11.6545 16.2665 11.451 16.3508 11.301 16.5008C11.151 16.6508 11.0667 16.8543 11.0667 17.0665C11.0667 17.2787 11.151 17.4822 11.301 17.6322C11.451 17.7822 11.6545 17.8665 11.8667 17.8665Z" fill="white"/>
</svg>
