<svg width="48" height="48" viewBox="0 0 48 48" fill="none" xmlns="http://www.w3.org/2000/svg">
<g id="solar:document-outline">
<path id="Vector" fill-rule="evenodd" clip-rule="evenodd" d="M21.888 0.5H26.112C29.788 0.5 32.7 0.5 34.978 0.806C37.322 1.122 39.22 1.786 40.718 3.282C42.214 4.78 42.878 6.678 43.194 9.022C43.5 11.302 43.5 14.212 43.5 17.888V26.112C43.5 29.788 43.5 32.7 43.194 34.978C42.878 37.322 42.214 39.22 40.718 40.718C39.22 42.214 37.322 42.878 34.978 43.194C32.698 43.5 29.788 43.5 26.112 43.5H21.888C18.212 43.5 15.3 43.5 13.022 43.194C10.678 42.878 8.78 42.214 7.282 40.718C5.786 39.22 5.122 37.322 4.806 34.978C4.5 32.698 4.5 29.788 4.5 26.112V17.888C4.5 14.212 4.5 11.3 4.806 9.022C5.122 6.678 5.786 4.78 7.282 3.282C8.78 1.786 10.678 1.122 13.022 0.806C15.302 0.5 18.212 0.5 21.888 0.5ZM13.42 3.78C11.408 4.05 10.248 4.558 9.4 5.404C8.556 6.25 8.048 7.41 7.778 9.422C7.502 11.478 7.498 14.186 7.498 18V26C7.498 29.814 7.502 32.524 7.778 34.58C8.048 36.59 8.556 37.75 9.402 38.596C10.248 39.442 11.408 39.95 13.42 40.22C15.476 40.496 18.184 40.5 21.998 40.5H25.998C29.812 40.5 32.522 40.496 34.578 40.22C36.588 39.95 37.748 39.442 38.594 38.596C39.44 37.75 39.948 36.59 40.218 34.578C40.494 32.524 40.498 29.814 40.498 26V18C40.498 14.186 40.494 11.478 40.218 9.42C39.948 7.41 39.44 6.25 38.594 5.404C37.748 4.558 36.588 4.05 34.576 3.78C32.522 3.504 29.812 3.5 25.998 3.5H21.998C18.184 3.5 15.478 3.504 13.42 3.78ZM14.5 14C14.5 13.6022 14.658 13.2206 14.9393 12.9393C15.2206 12.658 15.6022 12.5 16 12.5H32C32.3978 12.5 32.7794 12.658 33.0607 12.9393C33.342 13.2206 33.5 13.6022 33.5 14C33.5 14.3978 33.342 14.7794 33.0607 15.0607C32.7794 15.342 32.3978 15.5 32 15.5H16C15.6022 15.5 15.2206 15.342 14.9393 15.0607C14.658 14.7794 14.5 14.3978 14.5 14ZM14.5 22C14.5 21.6022 14.658 21.2206 14.9393 20.9393C15.2206 20.658 15.6022 20.5 16 20.5H26C26.3978 20.5 26.7794 20.658 27.0607 20.9393C27.342 21.2206 27.5 21.6022 27.5 22C27.5 22.3978 27.342 22.7794 27.0607 23.0607C26.7794 23.342 26.3978 23.5 26 23.5H16C15.6022 23.5 15.2206 23.342 14.9393 23.0607C14.658 22.7794 14.5 22.3978 14.5 22Z" fill="#D7D7D7"/>
<g id="Group 57">
<circle id="Ellipse 16" cx="37.5" cy="38" r="9" fill="#D7D7D7"/>
<path id="Vector_2" d="M37.5 34V42M41.5 38H33.5" stroke="white" stroke-width="2" stroke-linecap="round" stroke-linejoin="round"/>
</g>
</g>
</svg>
