<svg width="49" height="49" viewBox="0 0 49 49" fill="none" xmlns="http://www.w3.org/2000/svg">
<g clip-path="url(#clip0_80_2847)">
<circle cx="24.5" cy="24.5" r="24" fill="#F6F6F6"/>
<path d="M24.5 28.5C25.0304 28.5 25.5391 28.2893 25.9142 27.9142C26.2893 27.5391 26.5 27.0304 26.5 26.5V14.5C26.5 13.9696 26.2893 13.4609 25.9142 13.0858C25.5391 12.7107 25.0304 12.5 24.5 12.5C23.9696 12.5 23.4609 12.7107 23.0858 13.0858C22.7107 13.4609 22.5 13.9696 22.5 14.5V26.5C22.5 27.0304 22.7107 27.5391 23.0858 27.9142C23.4609 28.2893 23.9696 28.5 24.5 28.5ZM24.5 36.5C24.9945 36.5 25.4778 36.3534 25.8889 36.0787C26.3 35.804 26.6205 35.4135 26.8097 34.9567C26.9989 34.4999 27.0484 33.9972 26.952 33.5123C26.8555 33.0273 26.6174 32.5819 26.2678 32.2322C25.9181 31.8826 25.4727 31.6445 24.9877 31.548C24.5028 31.4516 24.0001 31.5011 23.5433 31.6903C23.0865 31.8795 22.696 32.1999 22.4213 32.6111C22.1466 33.0222 22 33.5055 22 34C22 34.663 22.2634 35.2989 22.7322 35.7678C23.2011 36.2366 23.837 36.5 24.5 36.5Z" fill="#545454"/>
</g>
<defs>
<clipPath id="clip0_80_2847">
<rect width="48" height="48" fill="white" transform="translate(0.5 0.5)"/>
</clipPath>
</defs>
</svg>
