<svg width="24" height="24" viewBox="0 0 24 24" fill="none" xmlns="http://www.w3.org/2000/svg">
<path d="M8.88783 6.55704C8.68161 6.55704 8.48383 6.63896 8.33801 6.78478C8.19219 6.9306 8.11026 7.12838 8.11026 7.3346C8.11026 7.54083 8.19219 7.7386 8.33801 7.88443C8.48383 8.03025 8.68161 8.11217 8.88783 8.11217C9.09405 8.11217 9.29183 8.03025 9.43765 7.88443C9.58347 7.7386 9.6654 7.54083 9.6654 7.3346C9.6654 7.12838 9.58347 6.9306 9.43765 6.78478C9.29183 6.63896 9.09405 6.55704 8.88783 6.55704ZM6.68732 6.55704C6.84797 6.10175 7.14588 5.70749 7.54 5.42863C7.93411 5.14976 8.40503 5 8.88783 5C9.37063 5 9.84155 5.14976 10.2357 5.42863C10.6298 5.70749 10.9277 6.10175 11.0883 6.55704H18.6635C18.8697 6.55704 19.0675 6.63896 19.2133 6.78478C19.3591 6.9306 19.4411 7.12838 19.4411 7.3346C19.4411 7.54083 19.3591 7.7386 19.2133 7.88443C19.0675 8.03025 18.8697 8.11217 18.6635 8.11217H11.0883C10.9277 8.56746 10.6298 8.96171 10.2357 9.24058C9.84155 9.51945 9.37063 9.66921 8.88783 9.66921C8.40503 9.66921 7.93411 9.51945 7.54 9.24058C7.14588 8.96171 6.84797 8.56746 6.68732 8.11217H5.77757C5.57134 8.11217 5.37357 8.03025 5.22774 7.88443C5.08192 7.7386 5 7.54083 5 7.3346C5 7.12838 5.08192 6.9306 5.22774 6.78478C5.37357 6.63896 5.57134 6.55704 5.77757 6.55704H6.68732ZM15.5532 11.2224C15.347 11.2224 15.1492 11.3044 15.0034 11.4502C14.8576 11.596 14.7757 11.7938 14.7757 12C14.7757 12.2062 14.8576 12.404 15.0034 12.5498C15.1492 12.6956 15.347 12.7776 15.5532 12.7776C15.7594 12.7776 15.9572 12.6956 16.103 12.5498C16.2489 12.404 16.3308 12.2062 16.3308 12C16.3308 11.7938 16.2489 11.596 16.103 11.4502C15.9572 11.3044 15.7594 11.2224 15.5532 11.2224ZM13.3527 11.2224C13.5134 10.7671 13.8113 10.3729 14.2054 10.094C14.5995 9.81515 15.0704 9.6654 15.5532 9.6654C16.036 9.6654 16.5069 9.81515 16.9011 10.094C17.2952 10.3729 17.5931 10.7671 17.7537 11.2224H18.6635C18.8697 11.2224 19.0675 11.3044 19.2133 11.4502C19.3591 11.596 19.4411 11.7938 19.4411 12C19.4411 12.2062 19.3591 12.404 19.2133 12.5498C19.0675 12.6956 18.8697 12.7776 18.6635 12.7776H17.7537C17.5931 13.2329 17.2952 13.6271 16.9011 13.906C16.5069 14.1848 16.036 14.3346 15.5532 14.3346C15.0704 14.3346 14.5995 14.1848 14.2054 13.906C13.8113 13.6271 13.5134 13.2329 13.3527 12.7776H5.77757C5.57134 12.7776 5.37357 12.6956 5.22774 12.5498C5.08192 12.404 5 12.2062 5 12C5 11.7938 5.08192 11.596 5.22774 11.4502C5.37357 11.3044 5.57134 11.2224 5.77757 11.2224H13.3527ZM8.88783 15.8878C8.68161 15.8878 8.48383 15.9698 8.33801 16.1156C8.19219 16.2614 8.11026 16.4592 8.11026 16.6654C8.11026 16.8716 8.19219 17.0694 8.33801 17.2152C8.48383 17.361 8.68161 17.443 8.88783 17.443C9.09405 17.443 9.29183 17.361 9.43765 17.2152C9.58347 17.0694 9.6654 16.8716 9.6654 16.6654C9.6654 16.4592 9.58347 16.2614 9.43765 16.1156C9.29183 15.9698 9.09405 15.8878 8.88783 15.8878ZM6.68732 15.8878C6.84797 15.4325 7.14588 15.0383 7.54 14.7594C7.93411 14.4805 8.40503 14.3308 8.88783 14.3308C9.37063 14.3308 9.84155 14.4805 10.2357 14.7594C10.6298 15.0383 10.9277 15.4325 11.0883 15.8878H18.6635C18.8697 15.8878 19.0675 15.9698 19.2133 16.1156C19.3591 16.2614 19.4411 16.4592 19.4411 16.6654C19.4411 16.8716 19.3591 17.0694 19.2133 17.2152C19.0675 17.361 18.8697 17.443 18.6635 17.443H11.0883C10.9277 17.8983 10.6298 18.2925 10.2357 18.5714C9.84155 18.8502 9.37063 19 8.88783 19C8.40503 19 7.93411 18.8502 7.54 18.5714C7.14588 18.2925 6.84797 17.8983 6.68732 17.443H5.77757C5.57134 17.443 5.37357 17.361 5.22774 17.2152C5.08192 17.0694 5 16.8716 5 16.6654C5 16.4592 5.08192 16.2614 5.22774 16.1156C5.37357 15.9698 5.57134 15.8878 5.77757 15.8878H6.68732Z" fill="#FF9900"/>
</svg>
