<svg width="15" height="14" viewBox="0 0 15 14" fill="none" xmlns="http://www.w3.org/2000/svg">
<path d="M3.88783 1.55704C3.68161 1.55704 3.48383 1.63896 3.33801 1.78478C3.19219 1.9306 3.11026 2.12838 3.11026 2.3346C3.11026 2.54083 3.19219 2.7386 3.33801 2.88443C3.48383 3.03025 3.68161 3.11217 3.88783 3.11217C4.09405 3.11217 4.29183 3.03025 4.43765 2.88443C4.58347 2.7386 4.6654 2.54083 4.6654 2.3346C4.6654 2.12838 4.58347 1.9306 4.43765 1.78478C4.29183 1.63896 4.09405 1.55704 3.88783 1.55704ZM1.68732 1.55704C1.84797 1.10175 2.14588 0.707495 2.54 0.428625C2.93411 0.149756 3.40503 0 3.88783 0C4.37063 0 4.84155 0.149756 5.23566 0.428625C5.62978 0.707495 5.9277 1.10175 6.08834 1.55704H13.6635C13.8697 1.55704 14.0675 1.63896 14.2133 1.78478C14.3591 1.9306 14.4411 2.12838 14.4411 2.3346C14.4411 2.54083 14.3591 2.7386 14.2133 2.88443C14.0675 3.03025 13.8697 3.11217 13.6635 3.11217H6.08834C5.9277 3.56746 5.62978 3.96171 5.23566 4.24058C4.84155 4.51945 4.37063 4.66921 3.88783 4.66921C3.40503 4.66921 2.93411 4.51945 2.54 4.24058C2.14588 3.96171 1.84797 3.56746 1.68732 3.11217H0.777566C0.571343 3.11217 0.373566 3.03025 0.227744 2.88443C0.0819221 2.7386 0 2.54083 0 2.3346C0 2.12838 0.0819221 1.9306 0.227744 1.78478C0.373566 1.63896 0.571343 1.55704 0.777566 1.55704H1.68732ZM10.5532 6.22243C10.347 6.22243 10.1492 6.30436 10.0034 6.45018C9.85758 6.596 9.77566 6.79378 9.77566 7C9.77566 7.20622 9.85758 7.404 10.0034 7.54982C10.1492 7.69564 10.347 7.77757 10.5532 7.77757C10.7594 7.77757 10.9572 7.69564 11.103 7.54982C11.2489 7.404 11.3308 7.20622 11.3308 7C11.3308 6.79378 11.2489 6.596 11.103 6.45018C10.9572 6.30436 10.7594 6.22243 10.5532 6.22243ZM8.35271 6.22243C8.51336 5.76714 8.81128 5.37289 9.20539 5.09402C9.59951 4.81515 10.0704 4.6654 10.5532 4.6654C11.036 4.6654 11.5069 4.81515 11.9011 5.09402C12.2952 5.37289 12.5931 5.76714 12.7537 6.22243H13.6635C13.8697 6.22243 14.0675 6.30436 14.2133 6.45018C14.3591 6.596 14.4411 6.79378 14.4411 7C14.4411 7.20622 14.3591 7.404 14.2133 7.54982C14.0675 7.69564 13.8697 7.77757 13.6635 7.77757H12.7537C12.5931 8.23286 12.2952 8.62711 11.9011 8.90598C11.5069 9.18485 11.036 9.3346 10.5532 9.3346C10.0704 9.3346 9.59951 9.18485 9.20539 8.90598C8.81128 8.62711 8.51336 8.23286 8.35271 7.77757H0.777566C0.571343 7.77757 0.373566 7.69564 0.227744 7.54982C0.0819221 7.404 0 7.20622 0 7C0 6.79378 0.0819221 6.596 0.227744 6.45018C0.373566 6.30436 0.571343 6.22243 0.777566 6.22243H8.35271ZM3.88783 10.8878C3.68161 10.8878 3.48383 10.9698 3.33801 11.1156C3.19219 11.2614 3.11026 11.4592 3.11026 11.6654C3.11026 11.8716 3.19219 12.0694 3.33801 12.2152C3.48383 12.361 3.68161 12.443 3.88783 12.443C4.09405 12.443 4.29183 12.361 4.43765 12.2152C4.58347 12.0694 4.6654 11.8716 4.6654 11.6654C4.6654 11.4592 4.58347 11.2614 4.43765 11.1156C4.29183 10.9698 4.09405 10.8878 3.88783 10.8878ZM1.68732 10.8878C1.84797 10.4325 2.14588 10.0383 2.54 9.75942C2.93411 9.48055 3.40503 9.33079 3.88783 9.33079C4.37063 9.33079 4.84155 9.48055 5.23566 9.75942C5.62978 10.0383 5.9277 10.4325 6.08834 10.8878H13.6635C13.8697 10.8878 14.0675 10.9698 14.2133 11.1156C14.3591 11.2614 14.4411 11.4592 14.4411 11.6654C14.4411 11.8716 14.3591 12.0694 14.2133 12.2152C14.0675 12.361 13.8697 12.443 13.6635 12.443H6.08834C5.9277 12.8983 5.62978 13.2925 5.23566 13.5714C4.84155 13.8502 4.37063 14 3.88783 14C3.40503 14 2.93411 13.8502 2.54 13.5714C2.14588 13.2925 1.84797 12.8983 1.68732 12.443H0.777566C0.571343 12.443 0.373566 12.361 0.227744 12.2152C0.0819221 12.0694 0 11.8716 0 11.6654C0 11.4592 0.0819221 11.2614 0.227744 11.1156C0.373566 10.9698 0.571343 10.8878 0.777566 10.8878H1.68732Z" fill="#D9D9D9"/>
</svg>
