<svg width="37" height="36" viewBox="0 0 37 36" fill="none" xmlns="http://www.w3.org/2000/svg">
<rect x="0.25" width="36" height="36" rx="18" fill="#5F5A4F"/>
<path fill-rule="evenodd" clip-rule="evenodd" d="M25.3444 17.7227C23.9678 17.9997 23.4623 18.7924 23.0998 18.6083C22.7833 18.3503 23.1294 16.8828 23.2041 16.2925C23.3005 15.5188 22.2591 15.0463 21.9037 15.9958C21.6097 16.9437 21.7481 20.298 21.8135 20.8906C21.8827 21.5266 22.9964 21.5015 23.1139 20.9492C23.1488 20.7757 23.239 20.4121 23.4981 19.9039C24.6094 17.8087 27.0399 18.7308 26.8011 20.2013C26.3897 22.4532 22.2117 22.4053 21.661 21.9252C20.8366 21.3387 18.2258 19.6064 15.7028 17.9639C15.7059 17.8475 15.7106 17.7227 15.716 17.6063C19.2259 15.5553 22.7615 13.4791 23.2041 13.0904C23.9017 12.4703 23.1294 11.3665 22.2342 12.0747C21.6369 12.554 18.8021 14.3997 15.8086 16.2955C16.0123 14.0048 16.3748 12.6879 16.5342 12.0831C16.8305 10.9564 15.2175 10.5342 14.943 11.6708C14.488 13.5446 14.236 15.3179 14.1116 16.9369C12.4083 15.8451 10.9485 14.9231 10.3994 14.6317C8.80971 13.7812 8.64405 15.3423 9.27712 15.6367C9.58044 15.782 11.1865 16.7512 13.1565 17.9624C11.1748 19.2032 9.40467 20.2827 8.51261 20.7947C7.91997 21.2793 8.43017 21.9252 9.04069 21.5654C10.0214 20.9492 11.923 19.8316 14.0229 18.5991C13.942 21.8841 14.4024 24.2623 14.7633 25.0026C15.2346 25.9543 16.0108 25.5389 15.8863 24.6465C15.7184 22.6746 15.6569 20.9705 15.6639 19.509C18.7072 21.3897 21.7388 23.284 22.0227 23.4605C22.7281 23.8994 23.3798 23.3989 23.4405 23.0451C25.895 22.8161 27.5998 22.3885 28.1481 20.4471C28.712 18.4622 26.8058 17.4298 25.3444 17.7227Z" fill="#FCB813"/>
</svg>
