<svg width="101" height="100" viewBox="0 0 101 100" fill="none" xmlns="http://www.w3.org/2000/svg">
<g clip-path="url(#clip0_8666_175682)">
<circle cx="51" cy="50" r="40" fill="#F6F6F6"/>
<path d="M51.0002 56.6667C51.8842 56.6667 52.7321 56.3155 53.3572 55.6904C53.9823 55.0652 54.3335 54.2174 54.3335 53.3333V33.3333C54.3335 32.4493 53.9823 31.6014 53.3572 30.9763C52.7321 30.3512 51.8842 30 51.0002 30C50.1161 30 49.2683 30.3512 48.6431 30.9763C48.018 31.6014 47.6668 32.4493 47.6668 33.3333V53.3333C47.6668 54.2174 48.018 55.0652 48.6431 55.6904C49.2683 56.3155 50.1161 56.6667 51.0002 56.6667ZM51.0002 70C51.8243 70 52.6298 69.7556 53.315 69.2978C54.0002 68.84 54.5343 68.1892 54.8497 67.4278C55.165 66.6665 55.2475 65.8287 55.0868 65.0205C54.926 64.2122 54.5292 63.4698 53.9464 62.8871C53.3637 62.3043 52.6213 61.9075 51.813 61.7467C51.0048 61.586 50.167 61.6685 49.4056 61.9838C48.6443 62.2992 47.9935 62.8332 47.5357 63.5185C47.0779 64.2037 46.8335 65.0092 46.8335 65.8333C46.8335 66.9384 47.2725 67.9982 48.0539 68.7796C48.8353 69.561 49.8951 70 51.0002 70Z" fill="#545454"/>
</g>
<defs>
<clipPath id="clip0_8666_175682">
<rect width="80" height="80" fill="white" transform="translate(11 10)"/>
</clipPath>
</defs>
</svg>
