<svg width="80" height="80" viewBox="0 0 80 80" fill="none" xmlns="http://www.w3.org/2000/svg">
<g clip-path="url(#clip0_1062_29199)">
<circle cx="40" cy="40" r="40" fill="#F6F6F6"/>
<path d="M40.0002 46.6667C40.8842 46.6667 41.7321 46.3155 42.3572 45.6904C42.9823 45.0652 43.3335 44.2174 43.3335 43.3333V23.3333C43.3335 22.4493 42.9823 21.6014 42.3572 20.9763C41.7321 20.3512 40.8842 20 40.0002 20C39.1161 20 38.2683 20.3512 37.6431 20.9763C37.018 21.6014 36.6668 22.4493 36.6668 23.3333V43.3333C36.6668 44.2174 37.018 45.0652 37.6431 45.6904C38.2683 46.3155 39.1161 46.6667 40.0002 46.6667ZM40.0002 60C40.8243 60 41.6298 59.7556 42.315 59.2978C43.0002 58.84 43.5343 58.1892 43.8497 57.4278C44.165 56.6665 44.2475 55.8287 44.0868 55.0205C43.926 54.2122 43.5292 53.4698 42.9464 52.8871C42.3637 52.3043 41.6213 51.9075 40.813 51.7467C40.0048 51.586 39.167 51.6685 38.4056 51.9838C37.6443 52.2992 36.9935 52.8332 36.5357 53.5185C36.0779 54.2037 35.8335 55.0092 35.8335 55.8333C35.8335 56.9384 36.2725 57.9982 37.0539 58.7796C37.8353 59.561 38.8951 60 40.0002 60Z" fill="#545454"/>
</g>
<defs>
<clipPath id="clip0_1062_29199">
<rect width="80" height="80" fill="white"/>
</clipPath>
</defs>
</svg>
