<svg width="24" height="24" viewBox="0 0 24 24" fill="none" xmlns="http://www.w3.org/2000/svg">
<rect width="24" height="24" rx="12" fill="white"/>
<path d="M15.0001 6.75C16.8106 7.78275 18.0001 9.7665 18.0001 12C18.0001 13.1867 17.6482 14.3467 16.9889 15.3334C16.3296 16.3201 15.3925 17.0891 14.2962 17.5433C13.1998 17.9974 11.9934 18.1162 10.8295 17.8847C9.66564 17.6532 8.59654 17.0818 7.75742 16.2426C6.91831 15.4035 6.34686 14.3344 6.11535 13.1705C5.88384 12.0067 6.00266 10.8003 6.45679 9.7039C6.91091 8.60754 7.67995 7.67047 8.66664 7.01118C9.65334 6.35189 10.8134 6 12.0001 6" stroke="#545454" stroke-width="1.3125" stroke-linecap="round" stroke-linejoin="round"/>
<path d="M15.0001 9.75V6.75H18.0001" stroke="#545454" stroke-width="1.3125" stroke-linecap="round" stroke-linejoin="round"/>
</svg>
