<svg width="24" height="24" viewBox="0 0 24 24" fill="none" xmlns="http://www.w3.org/2000/svg">
<path d="M15.0001 6.74994C16.8106 7.78269 18.0001 9.76644 18.0001 11.9999C18.0001 13.1866 17.6482 14.3467 16.9889 15.3334C16.3296 16.3201 15.3925 17.0891 14.2962 17.5432C13.1998 17.9973 11.9934 18.1162 10.8295 17.8846C9.66564 17.6531 8.59654 17.0817 7.75742 16.2426C6.91831 15.4035 6.34686 14.3344 6.11535 13.1705C5.88384 12.0066 6.00266 10.8002 6.45679 9.70384C6.91091 8.60748 7.67995 7.67041 8.66664 7.01112C9.65334 6.35183 10.8134 5.99994 12.0001 5.99994" stroke="#545454" stroke-width="1.3125" stroke-linecap="round" stroke-linejoin="round"/>
<path d="M15.0001 9.74997V6.74997H18.0001" stroke="#545454" stroke-width="1.3125" stroke-linecap="round" stroke-linejoin="round"/>
</svg>
