<svg xmlns="http://www.w3.org/2000/svg" width="16" height="16" fill="none"><g clip-path="url(#a)"><path fill="#545454" fill-rule="evenodd" d="M11.08 1.3v10.58c.44.05.9.21 1.51.42.03.01.07.02.1.04.59.2.98.34 1.28.4.29.06.39.03.44.01.08-.04.15-.09.2-.15.03-.04.09-.13.13-.43.04-.31.04-.74.04-1.38V3.9c0-.46 0-.75-.02-.96-.02-.2-.06-.28-.09-.32-.03-.05-.09-.11-.27-.19-.19-.09-.46-.19-.88-.33l-.96-.33c-.73-.25-1.16-.39-1.47-.45l-.01-.02ZM9.85 12.03V1.58c-.26.15-.58.37-1.05.69l-1.13.78-.09.06c-.56.39-.98.68-1.42.84V14.4c.26-.15.58-.37 1.05-.69l1.13-.78.09-.06c.56-.39.98-.68 1.42-.84Zm-4.92 2.66V4.12c-.44-.05-.9-.21-1.51-.42-.03-.01-.07-.02-.1-.04l-1.28-.4c-.29-.06-.39-.04-.44-.01-.08.04-.15.09-.2.15 0 0-.09.13-.13.43-.04.31-.04.74-.04 1.38v6.89c0 .46 0 .75.03.96.02.2.06.28.09.32.03.05.09.11.27.19.19.09.46.19.88.33l.96.33c.73.25 1.16.39 1.47.45M0 5.17c0-.59 0-1.09.04-1.49.05-.41.15-.82.44-1.14.17-.19.38-.35.61-.46.39-.18.8-.15 1.19-.07.38.08.83.24 1.38.43h.03c.92.33 1.23.43 1.54.42.12 0 .24-.02.36-.05.3-.07.58-.26 1.38-.81l1.13-.78s.08-.06.12-.08C9.1.54 9.71.12 10.42.02c.71-.1 1.4.14 2.39.48.04.01.09.03.13.04l.99.34c.38.13.71.25.98.37.29.14.55.31.75.6.2.29.28.6.32.92.03.3.03.66.03 1.08v6.97c0 .59 0 1.09-.04 1.49-.05.41-.15.82-.44 1.14-.17.19-.38.35-.61.46-.39.18-.8.15-1.19.07-.38-.08-.84-.24-1.38-.43h-.03c-.92-.33-1.23-.43-1.54-.42-.12 0-.24.02-.36.05-.3.07-.58.26-1.38.81l-1.13.78s-.08.06-.12.08c-.87.6-1.47 1.02-2.18 1.11-.71.1-1.4-.14-2.39-.48a.694.694 0 0 1-.13-.05l-.99-.34c-.38-.13-.71-.25-.98-.37-.29-.14-.55-.31-.75-.6-.2-.29-.28-.6-.32-.92C0 12.91 0 12.55 0 12.14V5.17Z" clip-rule="evenodd"/></g><defs><clipPath id="a"><path fill="#fff" d="M0 0h16v16H0z"/></clipPath></defs></svg>