<svg width="24" height="24" viewBox="0 0 24 24" fill="none" xmlns="http://www.w3.org/2000/svg">
<g clip-path="url(#clip0_493_14798)">
<circle cx="12" cy="12" r="12" fill="#F0FBEB"/>
<path fill-rule="evenodd" clip-rule="evenodd" d="M16.731 8.28596C16.8509 8.40582 16.9182 8.56836 16.9182 8.73785C16.9182 8.90733 16.8509 9.06987 16.731 9.18973L10.6591 15.2617C10.5392 15.3815 10.3767 15.4488 10.2072 15.4488C10.0377 15.4488 9.87518 15.3815 9.75532 15.2617L6.87913 12.3855C6.7627 12.265 6.69828 12.1035 6.69973 11.9359C6.70119 11.7683 6.76841 11.608 6.88691 11.4895C7.00542 11.371 7.16572 11.3038 7.33331 11.3023C7.50089 11.3009 7.66234 11.3653 7.78289 11.4817L10.2072 13.906L15.8273 8.28596C15.9471 8.16614 16.1097 8.09883 16.2792 8.09883C16.4486 8.09883 16.6112 8.16614 16.731 8.28596Z" fill="#4CCB1F"/>
<path fill-rule="evenodd" clip-rule="evenodd" d="M15.951 8.40973L10.2072 14.1535L7.66031 11.6066C7.57288 11.5227 7.45606 11.4763 7.33483 11.4773C7.21313 11.4784 7.09671 11.5272 7.01066 11.6133C6.9246 11.6993 6.87578 11.8157 6.87473 11.9374C6.87367 12.0587 6.92009 12.1755 7.00403 12.2629L9.87904 15.1379C9.96608 15.2249 10.0841 15.2738 10.2072 15.2738C10.3303 15.2738 10.4483 15.225 10.5353 15.1379M16.6073 9.06598L10.5353 15.1379L16.6073 9.06598ZM16.6073 9.06598C16.6943 8.97894 16.7432 8.86091 16.7432 8.73785C16.7432 8.61478 16.6943 8.49676 16.6073 8.40973M16.6073 8.40973C16.5203 8.32273 16.4022 8.27383 16.2792 8.27383C16.1561 8.27383 16.038 8.32272 15.951 8.40973M15.7036 8.1622C15.8562 8.00957 16.0633 7.92383 16.2792 7.92383C16.4951 7.92383 16.7021 8.00957 16.8548 8.1622C17.0074 8.31488 17.0932 8.52196 17.0932 8.73785C17.0932 8.95373 17.0074 9.16078 16.8548 9.31345L10.7828 15.3854C10.6302 15.5381 10.4231 15.6238 10.2072 15.6238C9.99132 15.6238 9.78427 15.5381 9.63159 15.3855L6.75323 12.5071C6.60493 12.3535 6.52288 12.1479 6.52474 11.9344C6.52659 11.7209 6.61222 11.5167 6.76317 11.3658C6.91412 11.2148 7.11832 11.1292 7.33179 11.1273C7.54526 11.1255 7.75091 11.2076 7.90446 11.3559L7.90665 11.358L10.2072 13.6586L15.7036 8.1622Z" fill="#4CCB1F"/>
</g>
<defs>
<clipPath id="clip0_493_14798">
<rect width="24" height="24" fill="white"/>
</clipPath>
</defs>
</svg>
