<svg width="80" height="80" viewBox="0 0 80 80" fill="none" xmlns="http://www.w3.org/2000/svg">
<g id="ico/mark" clip-path="url(#clip0_6656_25949)">
<circle id="Ellipse 21" cx="40" cy="40" r="40" fill="#FFF8EE"/>
<g id="ico/check">
<g id="Vector">
<path fill-rule="evenodd" clip-rule="evenodd" d="M57.1046 28.9571C57.504 29.3566 57.7284 29.8985 57.7284 30.4634C57.7284 31.0283 57.504 31.5701 57.1046 31.9697L36.8647 52.2095C36.4652 52.609 35.9234 52.8333 35.3585 52.8333C34.7935 52.8333 34.2517 52.609 33.8522 52.2095L24.2649 42.6222C23.8768 42.2204 23.6621 41.6822 23.6669 41.1236C23.6718 40.565 23.8958 40.0307 24.2908 39.6356C24.6859 39.2406 25.2202 39.0166 25.7788 39.0117C26.3374 39.0069 26.8756 39.2216 27.2774 39.6097L35.3585 47.6907L54.0921 28.9571C54.4916 28.5577 55.0334 28.3333 55.5984 28.3333C56.1633 28.3333 56.7051 28.5577 57.1046 28.9571Z" fill="#FF9900"/>
<path fill-rule="evenodd" clip-rule="evenodd" d="M54.5045 29.3697L35.3585 48.5157L26.8688 40.026C26.5774 39.7463 26.188 39.5915 25.7839 39.595C25.3782 39.5985 24.9902 39.7613 24.7033 40.0481C24.4165 40.335 24.2537 40.723 24.2502 41.1287C24.2467 41.5328 24.4014 41.9222 24.6812 42.2136L34.2646 51.797C34.5548 52.087 34.9482 52.25 35.3585 52.25C35.7687 52.25 36.1621 52.0871 36.4523 51.7971M56.6922 31.5572L36.4523 51.7971L56.6922 31.5572ZM56.6922 31.5572C56.9822 31.2671 57.1451 30.8736 57.1451 30.4634C57.1451 30.0532 56.9822 29.6598 56.6922 29.3697M56.6922 29.3697C56.4021 29.0797 56.0086 28.9167 55.5984 28.9167C55.1881 28.9167 54.7946 29.0796 54.5045 29.3697M53.6797 28.5446C54.1886 28.0358 54.8787 27.75 55.5984 27.75C56.318 27.75 57.0081 28.0358 57.517 28.5446C58.0258 29.0535 58.3117 29.7438 58.3117 30.4634C58.3117 31.183 58.0259 31.8732 57.5172 32.3821L37.2772 52.622C36.7683 53.1308 36.0781 53.4167 35.3585 53.4167C34.6389 53.4167 33.9487 53.1309 33.4398 52.6221L23.8452 43.0275C23.3509 42.5157 23.0774 41.8301 23.0836 41.1186C23.0898 40.407 23.3752 39.7263 23.8784 39.2232C24.3815 38.72 25.0622 38.4346 25.7738 38.4284C26.4853 38.4222 27.1708 38.6958 27.6827 39.1901L27.69 39.1971L35.3585 46.8658L53.6797 28.5446Z" fill="#FF9900"/>
</g>
</g>
</g>
<defs>
<clipPath id="clip0_6656_25949">
<rect width="80" height="80" fill="white"/>
</clipPath>
</defs>
</svg>
