<svg width="31" height="30" viewBox="0 0 31 30" fill="none" xmlns="http://www.w3.org/2000/svg">
<path d="M20.9934 29.3078H9.32871C7.02343 29.3078 4.65667 27.5865 3.94204 25.3965L0.338118 14.3004C-0.376518 12.1027 0.530225 9.32099 2.3975 7.96856L11.8338 1.11419C13.7011 -0.245923 16.6288 -0.238239 18.496 1.11419L27.9323 7.96856C29.7996 9.32867 30.7063 12.1104 29.9917 14.3004L26.3878 25.3888C25.6731 27.5865 23.3064 29.3001 21.0011 29.3001L20.9934 29.3078Z" fill="#231916"/>
<path d="M20.9935 29.3997H9.32875C6.98505 29.3997 4.57219 27.6477 3.84987 25.4193L0.245948 14.3309C-0.476373 12.1025 0.438055 9.26697 2.33607 7.89149L11.7723 1.03712C13.6704 -0.338363 16.6442 -0.346047 18.5422 1.03712L18.7804 1.21386L27.9785 7.89149C29.8765 9.26697 30.7986 12.1025 30.0686 14.3309L26.4647 25.4193C25.7423 27.6477 23.3295 29.3997 20.9858 29.3997H20.9935ZM15.1611 0.191852C13.9854 0.191852 12.802 0.522275 11.8876 1.19081L2.45133 8.04517C0.614793 9.37455 -0.268897 12.1101 0.430371 14.2694L4.03429 25.3578C4.73356 27.5171 7.06189 29.2076 9.32875 29.2076H20.9935C23.2603 29.2076 25.5887 27.5171 26.2879 25.3578L29.8918 14.2694C30.5911 12.1101 29.7074 9.37455 27.8709 8.04517L18.3808 1.15238C17.4741 0.506906 16.3137 0.191852 15.1611 0.191852Z" fill="#231916"/>
<path d="M26.357 10.1202L16.9208 3.26582C16.4751 2.94308 15.8296 2.75098 15.1611 2.75098C14.4925 2.75098 13.8547 2.9354 13.4014 3.26582L3.96508 10.1202C3.0276 10.8041 2.52044 12.3717 2.87392 13.4705L6.47784 24.5589C6.839 25.6655 8.16838 26.6337 9.3287 26.6337H20.9934C22.1537 26.6337 23.4908 25.6655 23.8443 24.5589L27.4482 13.4705C27.8094 12.364 27.2945 10.7964 26.357 10.1202Z" fill="#FABE00"/>
<path d="M17.0591 17.9889L21.3008 13.6319C21.8617 13.0556 21.8464 12.1412 21.2701 11.5879C20.6937 11.027 19.7793 11.0423 19.226 11.6187L11.5034 19.5488V9.72064C11.5034 8.92148 10.8579 8.276 10.0587 8.276C9.25955 8.276 8.61407 8.92148 8.61407 9.72064V23.1143C8.61407 23.706 8.96755 24.2362 9.51313 24.4514C9.68987 24.5205 9.87429 24.559 10.0587 24.559C10.4429 24.559 10.8195 24.4053 11.0961 24.121L15.0458 20.0637L19.2337 24.121C19.518 24.413 19.8946 24.559 20.2711 24.559C20.6476 24.559 21.0011 24.4206 21.2777 24.1517C21.8541 23.5907 21.8617 22.6763 21.3085 22.1077L17.0668 17.9966L17.0591 17.9889Z" fill="#231916"/>
<path d="M14.8921 23.1296H13.3015V24.7203H14.8921V23.1296Z" fill="#231916"/>
<path d="M17.013 23.1296H15.4223V24.7203H17.013V23.1296Z" fill="#231916"/>
</svg>
