<svg width="24" height="24" viewBox="0 0 24 24" fill="none" xmlns="http://www.w3.org/2000/svg">
<g id="ico/sort">
<g id="Vector">
<path d="M10.2 14H3H10.2ZM8.4 10.4H3H8.4ZM6.6 6.8H3H6.6ZM12 17.6H3H12ZM18.3 19.4V5V19.4ZM18.3 19.4L21 16.7L18.3 19.4ZM18.3 19.4L15.6 16.7L18.3 19.4ZM18.3 5L21 7.7L18.3 5ZM18.3 5L15.6 7.7L18.3 5Z" fill="#545454"/>
<path d="M10.2 14H3M8.4 10.4H3M6.6 6.8H3M12 17.6H3M18.3 19.4V5M18.3 19.4L21 16.7M18.3 19.4L15.6 16.7M18.3 5L21 7.7M18.3 5L15.6 7.7" stroke="#545454" stroke-width="1.35" stroke-linecap="round" stroke-linejoin="round"/>
</g>
</g>
</svg>
