<svg xmlns="http://www.w3.org/2000/svg" width="76" height="76" fill="none"><rect width="75" height="75" x=".5" y=".5" fill="#fff" rx="15.5"/><rect width="75" height="75" x=".5" y=".5" stroke="#A3A3A3" stroke-dasharray="4 4" rx="15.5"/><path fill="#7D7D7D" fill-rule="evenodd" d="M33.905 30.748a2.618 2.618 0 0 1 2.575-2.081h3.04a2.62 2.62 0 0 1 2.575 2.08.61.61 0 0 0 .577.488h.03c1.305.058 2.308.218 3.145.768.528.346.982.79 1.335 1.31.44.646.634 1.388.727 2.285.091.877.091 1.976.091 3.368v.079c0 1.391 0 2.49-.091 3.367-.093.897-.287 1.64-.727 2.286-.354.52-.808.965-1.335 1.31-.654.43-1.404.619-2.314.71-.891.088-2.008.088-3.428.088h-4.21c-1.42 0-2.537 0-3.428-.089-.91-.09-1.66-.279-2.314-.709a4.796 4.796 0 0 1-1.335-1.311c-.44-.646-.634-1.388-.727-2.285C28 41.536 28 40.436 28 39.045v-.08c0-1.391 0-2.49.091-3.367.093-.897.287-1.639.727-2.285.354-.52.808-.966 1.335-1.311.837-.549 1.84-.709 3.145-.766h.03a.61.61 0 0 0 .577-.488Zm2.575-.686c-.595 0-1.095.412-1.207.964-.182.893-.974 1.596-1.928 1.605-1.254.056-1.925.209-2.428.538a3.41 3.41 0 0 0-.946.93c-.257.376-.411.86-.493 1.643-.082.797-.083 1.824-.083 3.264 0 1.44 0 2.466.084 3.262.081.784.235 1.267.493 1.645.25.366.57.682.946.928.388.255.885.408 1.688.488.813.081 1.86.082 3.327.082h4.134c1.466 0 2.514 0 3.327-.082.803-.08 1.3-.232 1.688-.487a3.39 3.39 0 0 0 .947-.93c.257-.377.411-.86.493-1.644.082-.796.083-1.823.083-3.262 0-1.44 0-2.467-.084-3.264-.081-.784-.235-1.267-.493-1.643a3.4 3.4 0 0 0-.946-.93c-.5-.329-1.172-.482-2.428-.538-.953-.01-1.745-.711-1.927-1.605a1.222 1.222 0 0 0-1.207-.964h-3.04ZM38 36.574a2.093 2.093 0 1 0 0 4.186 2.093 2.093 0 0 0 0-4.186Zm-3.488 2.093a3.489 3.489 0 1 1 6.977 0 3.489 3.489 0 0 1-6.977 0Zm8.372-2.79a.697.697 0 0 1 .697-.698h.93a.698.698 0 1 1 0 1.395h-.93a.697.697 0 0 1-.697-.698Z" clip-rule="evenodd"/></svg>