<svg xmlns="http://www.w3.org/2000/svg" width="36" height="36" fill="none"><path fill="#fff" fill-rule="evenodd" d="M11.858 7.121C12.23 5.294 13.858 4 15.72 4h4.56c1.863 0 3.488 1.294 3.862 3.121a.915.915 0 0 0 .865.732h.046c1.958.086 3.462.326 4.718 1.15a7.183 7.183 0 0 1 2.002 1.967c.66.968.95 2.082 1.09 3.427.137 1.316.137 2.963.137 5.05v.12c0 2.087 0 3.736-.137 5.05-.14 1.346-.43 2.46-1.09 3.43a7.194 7.194 0 0 1-2.002 1.965c-.98.643-2.107.928-3.472 1.063-1.336.134-3.012.134-5.141.134h-6.316c-2.129 0-3.805 0-5.142-.134-1.364-.135-2.49-.418-3.471-1.063a7.193 7.193 0 0 1-2.002-1.967c-.66-.969-.95-2.082-1.09-3.427C3 23.303 3 21.654 3 19.567v-.12c0-2.087 0-3.734.137-5.05.14-1.345.43-2.459 1.09-3.427a7.192 7.192 0 0 1 2.002-1.968c1.256-.823 2.76-1.063 4.718-1.148l.023-.001h.023a.915.915 0 0 0 .865-.732m3.862-1.028c-.893 0-1.642.618-1.811 1.446-.272 1.34-1.461 2.394-2.891 2.407-1.881.083-2.889.314-3.642.808-.56.367-1.042.84-1.42 1.394-.384.565-.616 1.289-.739 2.465-.123 1.194-.124 2.735-.124 4.895 0 2.16 0 3.699.126 4.893.121 1.177.353 1.9.74 2.467.373.55.854 1.025 1.418 1.393.582.382 1.327.613 2.531.733 1.22.12 2.791.122 4.992.122h6.2c2.2 0 3.77 0 4.992-.122 1.204-.12 1.949-.35 2.53-.732a5.087 5.087 0 0 0 1.421-1.395c.385-.565.617-1.29.74-2.466.123-1.194.124-2.735.124-4.893 0-2.16 0-3.7-.126-4.895-.121-1.176-.353-1.9-.74-2.465a5.1 5.1 0 0 0-1.418-1.396c-.75-.492-1.758-.723-3.642-.806-1.429-.014-2.618-1.066-2.89-2.407a1.833 1.833 0 0 0-1.811-1.446zM18 15.861a3.14 3.14 0 1 0 0 6.28 3.14 3.14 0 0 0 0-6.28M12.767 19a5.232 5.232 0 1 1 10.465 0 5.232 5.232 0 0 1-10.465 0m12.559-4.186a1.046 1.046 0 0 1 1.046-1.046h1.395a1.046 1.046 0 1 1 0 2.092h-1.395a1.047 1.047 0 0 1-1.046-1.046" clip-rule="evenodd"/></svg>