<svg width="19" height="20" viewBox="0 0 19 20" fill="none" xmlns="http://www.w3.org/2000/svg">
<path fill-rule="evenodd" clip-rule="evenodd" d="M8.36618 2.68493C6.72701 2.68493 5.15498 3.33609 3.99591 4.49516C2.83684 5.65423 2.18568 7.22626 2.18568 8.86543C2.18568 10.5046 2.83684 12.0766 3.99591 13.2357C5.15498 14.3948 6.72701 15.0459 8.36618 15.0459C10.0054 15.0459 11.5774 14.3948 12.7365 13.2357C13.8955 12.0766 14.5467 10.5046 14.5467 8.86543C14.5467 7.22626 13.8955 5.65423 12.7365 4.49516C11.5774 3.33609 10.0054 2.68493 8.36618 2.68493ZM0.500092 8.86543C0.500198 7.60761 0.801939 6.36815 1.38 5.25103C1.95807 4.13391 2.7956 3.1717 3.82234 2.44512C4.84908 1.71854 6.03509 1.24878 7.28089 1.07523C8.52668 0.901687 9.79592 1.02943 10.9822 1.44773C12.1684 1.86603 13.237 2.56271 14.0984 3.47931C14.9597 4.39591 15.5887 5.50571 15.9326 6.71562C16.2765 7.92552 16.3252 9.20025 16.0747 10.4329C15.8241 11.6655 15.2817 12.8201 14.4927 13.7997L18.2325 17.5406C18.3153 17.6178 18.3817 17.7108 18.4278 17.8142C18.4739 17.9176 18.4986 18.0292 18.5006 18.1423C18.5026 18.2555 18.4818 18.3679 18.4394 18.4728C18.397 18.5778 18.3339 18.6731 18.2539 18.7532C18.1739 18.8332 18.0785 18.8963 17.9736 18.9387C17.8687 18.9811 17.7563 19.0019 17.6431 18.9999C17.5299 18.9979 17.4183 18.9731 17.3149 18.927C17.2116 18.881 17.1185 18.8146 17.0414 18.7318L13.3005 14.992C12.1448 15.9229 10.7493 16.5078 9.27529 16.6793C7.80126 16.8509 6.30878 16.6019 4.97022 15.9612C3.63167 15.3206 2.50164 14.3143 1.71065 13.0587C0.919668 11.8031 0.499991 10.3494 0.500092 8.86543Z" fill="#FF9900" stroke="#FF9900" stroke-width="0.5"/>
</svg>
