<svg width="24" height="24" viewBox="0 0 24 24" fill="none" xmlns="http://www.w3.org/2000/svg">
<g id="fluent:ios-arrow-24-filled">
<path id="Vector" d="M9.55543 5.71826L9.55535 5.71818C9.53598 5.69768 9.52084 5.67357 9.51079 5.64722C9.50074 5.62087 9.49597 5.59279 9.49677 5.5646C9.49757 5.53642 9.50391 5.50866 9.51543 5.48292C9.52696 5.45718 9.54344 5.43396 9.56394 5.41459L9.22052 5.05118L9.56394 5.41459C9.58443 5.39522 9.60855 5.38008 9.6349 5.37003L9.45669 4.90286L9.6349 5.37003C9.66125 5.35998 9.68932 5.35521 9.71751 5.35601C9.7457 5.35681 9.77346 5.36315 9.7992 5.37468C9.82489 5.38618 9.84807 5.40263 9.86742 5.42308L9.55543 5.71826ZM9.55543 5.71826L15.1663 11.6585L15.4905 12.0018L15.1663 12.3451L9.55547 18.2868L9.5555 18.2868L9.55073 18.2918C9.53093 18.3122 9.51538 18.3363 9.50498 18.3627C9.49459 18.3892 9.48955 18.4175 9.49017 18.4459C9.49079 18.4743 9.49705 18.5023 9.50859 18.5283C9.52012 18.5543 9.53671 18.5777 9.55738 18.5972C9.57804 18.6167 9.60238 18.6319 9.62898 18.642C9.65558 18.652 9.68391 18.6567 9.71231 18.6556L9.73007 19.1553L9.71232 18.6556C9.74072 18.6546 9.76865 18.648 9.79446 18.6361C9.82028 18.6242 9.84348 18.6073 9.86271 18.5864L9.86268 18.5863L9.8674 18.5813L15.9413 12.1495L15.9415 12.1493C15.9791 12.1094 16.0001 12.0567 16.0001 12.0018C16.0001 11.947 15.9791 11.8943 15.9415 11.8544L15.9413 11.8542L9.86752 5.42318L9.55543 5.71826Z" fill="#545454" stroke="#545454"/>
</g>
</svg>
