<svg width="16" height="16" viewBox="0 0 16 16" fill="none" xmlns="http://www.w3.org/2000/svg">
<rect width="16" height="16" fill="white"/>
<path d="M5.35206 1.33331H3.23777C2.7326 1.33331 2.24811 1.53399 1.8909 1.89121C1.53369 2.24842 1.33301 2.73291 1.33301 3.23809V5.14286C1.33301 10.4029 5.59682 14.6667 10.8568 14.6667H12.7616C13.2668 14.6667 13.7512 14.466 14.1084 14.1088C14.4657 13.7516 14.6663 13.2671 14.6663 12.7619V11.4457C14.6662 11.2689 14.6169 11.0956 14.5239 10.9452C14.4309 10.7949 14.2978 10.6734 14.1397 10.5943L11.8387 9.44383C11.7167 9.38279 11.583 9.34868 11.4466 9.34382C11.3102 9.33896 11.1744 9.36346 11.0483 9.41566C10.9223 9.46786 10.8089 9.54654 10.7159 9.64638C10.6228 9.74621 10.5524 9.86487 10.5092 9.99431L10.2263 10.8448C10.1375 11.1112 9.95451 11.3361 9.71162 11.4771C9.46873 11.6181 9.1827 11.6655 8.90729 11.6105C7.79246 11.3874 6.76862 10.8393 5.96477 10.0353C5.16091 9.23124 4.61303 8.20727 4.39015 7.09239C4.33513 6.81698 4.38257 6.53096 4.52357 6.28806C4.66457 6.04517 4.88942 5.86213 5.15587 5.77334L6.2111 5.42095C6.4385 5.3451 6.62893 5.18629 6.74438 4.97621C6.85984 4.76613 6.89182 4.52024 6.83396 4.28762L6.27587 2.05427C6.22427 1.84832 6.10534 1.66551 5.93797 1.53489C5.77059 1.40427 5.56437 1.33332 5.35206 1.33331Z" fill="#545454"/>
</svg>
