<svg width="24" height="24" viewBox="0 0 24 24" fill="none" xmlns="http://www.w3.org/2000/svg">
<g id="State=Check" clip-path="url(#clip0_335_811)">
<circle id="Ellipse 21" cx="12" cy="12" r="12" fill="#2AA100"/>
<g id="Vector">
<path fill-rule="evenodd" clip-rule="evenodd" d="M18.4323 8.10707C18.587 8.26188 18.674 8.47182 18.674 8.69072C18.674 8.90962 18.587 9.11956 18.4323 9.27437L10.5899 17.1169C10.4351 17.2716 10.2251 17.3586 10.0062 17.3586C9.78733 17.3586 9.57739 17.2716 9.42258 17.1169L5.70776 13.402C5.55738 13.2463 5.47418 13.0378 5.47606 12.8213C5.47794 12.6049 5.56476 12.3978 5.71781 12.2448C5.87087 12.0917 6.07792 12.0049 6.29437 12.003C6.51082 12.0011 6.71934 12.0843 6.87504 12.2347L10.0062 15.3659L17.265 8.10707C17.4198 7.95231 17.6297 7.86537 17.8486 7.86537C18.0675 7.86537 18.2775 7.95231 18.4323 8.10707Z" fill="white"/>
<path fill-rule="evenodd" clip-rule="evenodd" d="M17.4248 8.26692L10.0062 15.6856L6.71672 12.396C6.60379 12.2876 6.45292 12.2277 6.29633 12.229C6.13915 12.2304 5.98879 12.2934 5.87764 12.4046C5.76649 12.5157 5.70344 12.6661 5.70207 12.8233C5.70071 12.9799 5.76067 13.1307 5.86908 13.2437L9.58238 16.957C9.6948 17.0694 9.84727 17.1325 10.0062 17.1325C10.1652 17.1325 10.3176 17.0694 10.43 16.957M18.2725 9.11454L10.43 16.957L18.2725 9.11454ZM18.2725 9.11454C18.3848 9.00212 18.4479 8.84968 18.4479 8.69072C18.4479 8.53178 18.3848 8.37934 18.2725 8.26692M18.2725 8.26692C18.1601 8.15457 18.0076 8.0914 17.8486 8.0914C17.6897 8.0914 17.5372 8.15455 17.4248 8.26692M17.1052 7.94722C17.3024 7.75009 17.5698 7.63934 17.8486 7.63934C18.1275 7.63934 18.3949 7.75009 18.5921 7.94722C18.7892 8.14442 18.9 8.41189 18.9 8.69072C18.9 8.96956 18.7893 9.23697 18.5921 9.43417L10.7497 17.2767C10.5525 17.4738 10.2851 17.5846 10.0062 17.5846C9.72739 17.5846 9.45998 17.4738 9.26278 17.2767L5.54516 13.559C5.35361 13.3607 5.24764 13.0951 5.25004 12.8194C5.25244 12.5436 5.36303 12.2799 5.55799 12.0849C5.75295 11.89 6.01669 11.7794 6.29241 11.777C6.56812 11.7746 6.83374 11.8806 7.03206 12.0721L7.03489 12.0749L10.0062 15.0463L17.1052 7.94722Z" fill="white"/>
</g>
</g>
<defs>
<clipPath id="clip0_335_811">
<rect width="24" height="24" fill="white"/>
</clipPath>
</defs>
</svg>
