<svg width="103" height="103" viewBox="0 0 103 103" fill="none" xmlns="http://www.w3.org/2000/svg">
<rect x="0.5" y="0.5" width="102" height="102" rx="3.5" fill="white"/>
<rect x="0.5" y="0.5" width="102" height="102" rx="3.5" stroke="#007BC8"/>
<path d="M51.5 33.1667V44.8333M45.6666 39H57.3333" stroke="#007BC8" stroke-width="1.5" stroke-linecap="round" stroke-linejoin="round"/>
<path d="M38.9902 60.5859V61.8301H27.7109V60.5859H38.9902ZM37.6914 58.3984V59.6152H29.0918V55.2539H37.623V56.4844H30.6094V58.3984H37.6914ZM33.3301 62.6914C35.9961 62.6777 37.5957 63.498 37.6094 64.9336C37.5957 66.3828 35.9961 67.2031 33.3301 67.2031C30.6367 67.2031 29.0234 66.3828 29.0234 64.9336C29.0234 63.498 30.6367 62.6777 33.3301 62.6914ZM33.3301 63.8535C31.5254 63.8535 30.5547 64.2363 30.5684 64.9336C30.5547 65.6582 31.5254 66.0273 33.3301 66.0273C35.0938 66.0273 36.0781 65.6582 36.0918 64.9336C36.0781 64.2363 35.0938 63.8535 33.3301 63.8535ZM51.0898 61.543V62.7734H39.7969V61.543H44.6914V60.5176H41.2324V57.2363H48.1777V56.3203H41.1914V55.1309H49.6953V58.3438H42.7363V59.3281H49.9414V60.5176H46.1953V61.543H51.0898ZM49.7637 63.5527V67.1348H48.2324V64.7559H41.0547V63.5527H49.7637ZM61.5898 54.8574V59.7793H63.4902V61.0371H61.5898V67.2168H60.0859V54.8574H61.5898ZM59.1289 56.7578V57.9746H51.8418V56.7578H54.7676V55.0352H56.2852V56.7578H59.1289ZM55.5332 58.7812C57.3105 58.7812 58.6367 59.9844 58.6367 61.6934C58.6367 63.4023 57.3105 64.5918 55.5332 64.5918C53.7285 64.5918 52.4023 63.4023 52.416 61.6934C52.4023 59.9844 53.7285 58.7812 55.5332 58.7812ZM55.5332 60.0254C54.5625 60.0254 53.8652 60.6816 53.8652 61.6934C53.8652 62.7051 54.5625 63.3477 55.5332 63.334C56.4766 63.3477 57.1738 62.7051 57.1875 61.6934C57.1738 60.6816 56.4766 60.0254 55.5332 60.0254ZM74.332 54.8574V67.2168H72.8008V54.8574H74.332ZM70.6406 56.1699C70.6406 59.8477 69.2188 62.9785 64.8848 65.0293L64.0918 63.8125C67.3252 62.2744 68.8291 60.1826 69.0957 57.373H64.7207V56.1699H70.6406Z" fill="#007BC8"/>
</svg>
