<svg width="24" height="24" viewBox="0 0 24 24" fill="none" xmlns="http://www.w3.org/2000/svg">
<g clip-path="url(#clip0_17795_36)">
<rect width="24" height="24" rx="8" fill="#007BC8"/>
<path fill-rule="evenodd" clip-rule="evenodd" d="M19.3305 7.26734C19.5017 7.43856 19.5979 7.67077 19.5979 7.91288C19.5979 8.155 19.5017 8.3872 19.3305 8.55843L10.6563 17.2327C10.4851 17.4038 10.2529 17.5 10.0108 17.5C9.76865 17.5 9.53645 17.4038 9.36522 17.2327L5.25637 13.1238C5.09005 12.9516 4.99802 12.721 5.0001 12.4816C5.00218 12.2421 5.0982 12.0131 5.2675 11.8438C5.43679 11.6746 5.6658 11.5785 5.9052 11.5764C6.14461 11.5744 6.37526 11.6664 6.54746 11.8327L10.0108 15.296L18.0395 7.26734C18.2107 7.09616 18.4429 7 18.685 7C18.9271 7 19.1593 7.09616 19.3305 7.26734Z" fill="white"/>
<path fill-rule="evenodd" clip-rule="evenodd" d="M18.2162 7.44414L10.0108 15.6496L6.37235 12.0112C6.24745 11.8913 6.08057 11.8249 5.90738 11.8264C5.73352 11.8279 5.56721 11.8977 5.44427 12.0206C5.32133 12.1436 5.2516 12.3099 5.25009 12.4837C5.24858 12.6569 5.3149 12.8238 5.4348 12.9487L9.54197 17.0559C9.66631 17.1802 9.83495 17.25 10.0108 17.25C10.1866 17.25 10.3552 17.1802 10.4795 17.0559M19.1538 8.38165L10.4795 17.0559L19.1538 8.38165ZM19.1538 8.38165C19.2781 8.25731 19.3479 8.08869 19.3479 7.91288C19.3479 7.73708 19.2781 7.56848 19.1538 7.44414M19.1538 7.44414C19.0295 7.31987 18.8608 7.25 18.685 7.25C18.5092 7.25 18.3405 7.31985 18.2162 7.44414M17.8627 7.09053C18.0808 6.87249 18.3766 6.75 18.685 6.75C18.9934 6.75 19.2892 6.87249 19.5073 7.09053C19.7253 7.30864 19.8479 7.60448 19.8479 7.91288C19.8479 8.22129 19.7254 8.51707 19.5074 8.73518L10.8331 17.4094C10.615 17.6275 10.3192 17.75 10.0108 17.75C9.70236 17.75 9.40658 17.6275 9.18847 17.4095L5.07652 13.2975C4.86466 13.0782 4.74746 12.7843 4.75011 12.4794C4.75275 12.1744 4.87507 11.8827 5.09072 11.6671C5.30636 11.4514 5.59808 11.3291 5.90303 11.3265C6.20799 11.3238 6.50178 11.441 6.72114 11.6529L6.72427 11.6559L10.0108 14.9425L17.8627 7.09053Z" fill="white"/>
</g>
<defs>
<clipPath id="clip0_17795_36">
<rect width="24" height="24" fill="white"/>
</clipPath>
</defs>
</svg>
