<svg xmlns="http://www.w3.org/2000/svg" width="37" height="36" fill="none"><rect width="36" height="36" x=".25" fill="#DDF3FF" rx="18"/><g clip-path="url(#a)"><path fill="#fff" d="M30.373 17.868c0 6.763-5.484 12.244-12.234 12.244S5.888 24.632 5.888 17.868c0-6.763 5.483-12.243 12.25-12.243 6.765 0 12.234 5.488 12.234 12.243h.001Z"/><path fill="#0083CA" d="M18.145 29.535c6.433 0 11.655-5.22 11.655-11.664 0-6.443-5.222-11.663-11.656-11.663-6.435 0-11.663 5.221-11.663 11.663S11.7 29.535 18.145 29.535Z"/><mask id="b" width="24" height="24" x="6" y="6" maskUnits="userSpaceOnUse" style="mask-type:luminance"><path fill="#fff" d="M18.144 29.535c6.433 0 11.655-5.22 11.655-11.66 0-6.439-5.222-11.659-11.657-11.659-6.434 0-11.662 5.218-11.662 11.66 0 6.441 5.218 11.659 11.664 11.659Z"/></mask><g mask="url(#b)"><path fill="#0083CA" d="M18.247 23.497c5.132 0 9.52 1.433 11.408 3.46a11.9 11.9 0 0 0 .97-4.718c0-6.695-5.544-12.111-12.378-12.111-6.834 0-12.372 5.42-12.372 12.117 0 1.67.35 3.268.973 4.713 1.884-2.027 6.277-3.459 11.399-3.459v-.002Z"/><path fill="#0085CC" d="M18.246 23.51c5.117 0 9.495 1.422 11.379 3.432.622-1.43.969-3.022.969-4.68 0-6.641-5.531-12.03-12.347-12.03-6.815 0-12.341 5.392-12.341 12.035 0 1.657.348 3.242.97 4.675 1.878-2.01 6.261-3.432 11.37-3.432Z"/><path fill="#0087CD" d="M18.244 23.524c5.105 0 9.47 1.41 11.349 3.403a11.59 11.59 0 0 0 .965-4.641c0-6.588-5.516-11.95-12.314-11.95S5.934 15.7 5.934 22.29c0 1.644.349 3.216.969 4.637 1.874-1.994 6.245-3.403 11.341-3.403Z"/><path fill="#0088CE" d="M18.243 23.537c5.092 0 9.446 1.396 11.32 3.375.619-1.407.964-2.974.964-4.605 0-6.533-5.502-11.87-12.284-11.87-6.782 0-12.278 5.34-12.278 11.876 0 1.63.347 3.19.966 4.6 1.87-1.978 6.23-3.375 11.31-3.375l.002-.002Z"/><path fill="#008ACF" d="M18.241 23.55c5.079 0 9.422 1.385 11.29 3.347.618-1.395.962-2.948.962-4.566 0-6.48-5.487-11.79-12.252-11.79-6.764 0-12.246 5.313-12.246 11.794 0 1.617.347 3.165.964 4.562 1.864-1.962 6.214-3.347 11.282-3.347Z"/><path fill="#008CD0" d="M18.238 23.563c5.066 0 9.398 1.373 11.26 3.32.616-1.384.96-2.924.96-4.528 0-6.426-5.473-11.708-12.22-11.708-6.747 0-12.213 5.284-12.213 11.711 0 1.604.346 3.14.962 4.525 1.86-1.947 6.197-3.32 11.253-3.32h-.002Z"/><path fill="#008ED2" d="M18.237 23.576c5.052 0 9.373 1.362 11.231 3.29.616-1.372.957-2.898.957-4.49 0-6.37-5.458-11.628-12.188-11.628S6.054 16.008 6.054 22.381c0 1.59.344 3.113.96 4.487 1.856-1.929 6.182-3.29 11.223-3.29v-.002Z"/><path fill="#0090D3" d="M18.235 23.588c5.04 0 9.349 1.351 11.203 3.264.614-1.36.956-2.875.956-4.452 0-6.318-5.446-11.548-12.157-11.548S6.085 16.084 6.085 22.402c0 1.578.344 3.088.957 4.45 1.85-1.913 6.164-3.264 11.193-3.264Z"/><path fill="#0091D4" d="M18.234 23.603c5.024 0 9.325 1.34 11.171 3.236.614-1.349.953-2.85.953-4.414 0-6.265-5.43-11.467-12.126-11.467-6.695 0-12.117 5.202-12.117 11.468 0 1.565.342 3.061.955 4.412 1.845-1.897 6.149-3.236 11.165-3.236l-.001.001Z"/><path fill="#0093D5" d="M18.233 23.616c5.011 0 9.3 1.328 11.143 3.207.611-1.337.951-2.825.951-4.377 0-6.21-5.417-11.386-12.094-11.386-6.678 0-12.088 5.178-12.088 11.39 0 1.55.342 3.036.953 4.373 1.841-1.881 6.133-3.207 11.135-3.207Z"/><path fill="#0095D7" d="M18.23 23.63c5 0 9.277 1.314 11.115 3.179.61-1.326.948-2.801.948-4.34 0-6.155-5.402-11.306-12.062-11.306-6.66 0-12.057 5.152-12.057 11.308 0 1.538.341 3.01.951 4.337 1.835-1.864 6.117-3.18 11.106-3.18v.001Z"/><path fill="#0097D8" d="M18.23 23.642c4.986 0 9.251 1.303 11.083 3.152.61-1.314.948-2.776.948-4.302 0-6.102-5.388-11.225-12.031-11.225-6.643 0-12.025 5.125-12.025 11.227 0 1.526.34 2.985.948 4.299 1.83-1.848 6.101-3.152 11.077-3.152v.001Z"/><path fill="#0099D9" d="M18.229 23.655c4.973 0 9.227 1.291 11.054 3.124.61-1.303.945-2.752.945-4.263 0-6.049-5.375-11.145-12-11.145-6.624 0-11.993 5.097-11.993 11.146 0 1.513.34 2.959.946 4.262 1.825-1.832 6.085-3.124 11.046-3.124h.002Z"/><path fill="#009BDA" d="M18.227 23.668c4.96 0 9.203 1.28 11.025 3.096a9.908 9.908 0 0 0 .943-4.225c0-5.994-5.36-11.064-11.968-11.064-6.609 0-11.962 5.07-11.962 11.064 0 1.5.338 2.932.944 4.224 1.82-1.817 6.07-3.096 11.018-3.096v.001Z"/><path fill="#009DDC" d="M18.226 23.681c4.947 0 9.18 1.268 10.995 3.067a9.766 9.766 0 0 0 .94-4.187c0-5.94-5.346-10.984-11.937-10.984-6.59 0-11.93 5.045-11.93 10.985 0 1.486.338 2.908.942 4.186 1.816-1.8 6.053-3.067 10.988-3.067h.002Z"/><path fill="#009FDD" d="M18.222 23.694c4.934 0 9.155 1.257 10.967 3.04a9.622 9.622 0 0 0 .938-4.15c0-5.887-5.331-10.903-11.905-10.903-6.573 0-11.898 5.017-11.898 10.904a9.64 9.64 0 0 0 .94 4.149c1.81-1.783 6.037-3.04 10.96-3.04h-.002Z"/><path fill="#00A1DE" d="M18.221 23.707c4.92 0 9.13 1.245 10.938 3.012a9.481 9.481 0 0 0 .935-4.112c0-5.832-5.317-10.822-11.873-10.822-6.556 0-11.866 4.99-11.866 10.822 0 1.459.336 2.856.937 4.11 1.806-1.766 6.02-3.011 10.929-3.011v.001Z"/><path fill="#00A3DF" d="M18.22 23.72c4.906 0 9.107 1.234 10.907 2.983a9.321 9.321 0 0 0 .934-4.075c0-5.778-5.303-10.74-11.84-10.74-6.538 0-11.835 4.964-11.835 10.742 0 1.446.335 2.83.935 4.073 1.802-1.75 6.004-2.983 10.9-2.983Z"/><path fill="#00A5E1" d="M18.218 23.733c4.893 0 9.083 1.22 10.878 2.956a9.18 9.18 0 0 0 .932-4.037c0-5.725-5.29-10.662-11.81-10.662-6.52 0-11.804 4.938-11.804 10.663 0 1.433.334 2.804.933 4.036 1.796-1.735 5.988-2.956 10.871-2.956Z"/><path fill="#00A7E2" d="M18.217 23.746c4.88 0 9.058 1.21 10.85 2.928.6-1.22.93-2.58.93-3.998 0-5.671-5.276-10.58-11.78-10.58S6.445 17.005 6.445 22.675c0 1.42.333 2.779.931 3.998 1.792-1.718 5.972-2.928 10.841-2.928v.001Z"/><path fill="#00A9E3" d="M18.215 23.76c4.868 0 9.034 1.197 10.82 2.899a8.905 8.905 0 0 0 .928-3.961c0-5.616-5.26-10.5-11.748-10.5-6.487 0-11.74 4.884-11.74 10.5 0 1.407.333 2.753.928 3.96 1.788-1.701 5.957-2.899 10.812-2.899Z"/><path fill="#00ABE5" d="M18.213 23.772c4.854 0 9.009 1.186 10.79 2.872a8.767 8.767 0 0 0 .926-3.923c0-5.563-5.246-10.42-11.716-10.42-6.47 0-11.71 4.857-11.71 10.42 0 1.394.332 2.727.927 3.923 1.782-1.686 5.94-2.872 10.783-2.872Z"/><path fill="#00ADE6" d="M18.212 23.785c4.841 0 8.986 1.175 10.762 2.845a8.63 8.63 0 0 0 .924-3.886c0-5.509-5.234-10.339-11.684-10.339-6.451 0-11.68 4.83-11.68 10.338 0 1.38.33 2.701.924 3.885 1.777-1.67 5.925-2.844 10.753-2.844l.001.001Z"/><path fill="#00B0E7" d="M18.211 23.798c4.827 0 8.961 1.163 10.731 2.816a8.476 8.476 0 0 0 .921-3.848c0-5.454-5.218-10.258-11.652-10.258-6.433 0-11.646 4.803-11.646 10.258 0 1.368.33 2.675.922 3.848 1.772-1.653 5.909-2.816 10.724-2.816Z"/><path fill="#00B2E9" d="M18.21 23.811c4.814 0 8.936 1.151 10.702 2.788a8.343 8.343 0 0 0 .92-3.81c0-5.401-5.204-10.177-11.622-10.177-6.417 0-11.614 4.777-11.614 10.177 0 1.355.328 2.65.92 3.81 1.766-1.637 5.89-2.788 10.694-2.788Z"/><path fill="#00B4EA" d="M18.207 23.824c4.8 0 8.912 1.14 10.673 2.76a8.209 8.209 0 0 0 .917-3.772c0-5.347-5.19-10.097-11.59-10.097-6.4 0-11.583 4.751-11.583 10.096 0 1.342.329 2.624.918 3.772 1.763-1.62 5.876-2.76 10.665-2.76v.001Z"/><path fill="#00B6EB" d="M18.205 23.837c4.788 0 8.888 1.127 10.642 2.732a8.072 8.072 0 0 0 .916-3.734c0-5.294-5.176-10.016-11.558-10.016-6.383 0-11.551 4.724-11.551 10.015 0 1.327.327 2.598.915 3.735 1.757-1.605 5.86-2.732 10.636-2.732Z"/><path fill="#00B9ED" d="M18.204 23.85c4.774 0 8.864 1.115 10.613 2.704a7.938 7.938 0 0 0 .913-3.696c0-5.239-5.161-9.935-11.526-9.935-6.366 0-11.52 4.696-11.52 9.934 0 1.314.326 2.572.915 3.697 1.752-1.589 5.843-2.704 10.606-2.704h-.001Z"/><path fill="#03BBEE" d="M18.203 23.863c4.761 0 8.84 1.104 10.584 2.677a7.792 7.792 0 0 0 .911-3.659c0-5.185-5.147-9.854-11.494-9.854-6.347 0-11.489 4.669-11.489 9.851a7.84 7.84 0 0 0 .911 3.66c1.749-1.571 5.828-2.676 10.578-2.676l-.001.001Z"/><path fill="#12BDF0" d="M18.2 23.876c4.75 0 8.816 1.092 10.555 2.648a7.662 7.662 0 0 0 .908-3.62c0-5.133-5.133-9.776-11.464-9.776-6.33 0-11.455 4.645-11.455 9.774a7.69 7.69 0 0 0 .91 3.622c1.742-1.556 5.811-2.648 10.547-2.648Z"/><path fill="#1BC0F1" d="M18.2 23.89c4.734 0 8.79 1.08 10.525 2.62a7.533 7.533 0 0 0 .907-3.584c0-5.077-5.119-9.694-11.432-9.694-6.314 0-11.425 4.617-11.425 9.693 0 1.275.324 2.496.906 3.584 1.739-1.54 5.796-2.62 10.519-2.62Z"/><path fill="#20C4F4" d="M18.198 23.902c4.721 0 8.767 1.069 10.496 2.592a7.404 7.404 0 0 0 .904-3.546c0-5.023-5.104-9.613-11.4-9.613S6.805 17.926 6.805 22.947c0 1.262.322 2.47.903 3.547 1.734-1.524 5.78-2.592 10.49-2.592Z"/><path fill="#32C5F4" d="M18.198 23.933c4.716 0 8.756 1.061 10.482 2.575a7.335 7.335 0 0 0 .903-3.522c0-4.992-5.098-9.554-11.385-9.554s-11.377 4.562-11.377 9.55c0 1.255.322 2.455.904 3.525 1.73-1.514 5.77-2.576 10.475-2.576l-.002.002Z"/><path fill="#40C7F4" d="M18.198 23.962c4.708 0 8.742 1.054 10.468 2.558a7.253 7.253 0 0 0 .902-3.5c0-4.958-5.092-9.496-11.37-9.496-6.279 0-11.363 4.54-11.363 9.495 0 1.246.321 2.437.902 3.5 1.728-1.503 5.764-2.557 10.46-2.557Z"/><path fill="#4AC9F5" d="M18.198 23.992c4.702 0 8.73 1.049 10.453 2.542.582-1.06.9-2.24.9-3.476 0-4.927-5.084-9.437-11.353-9.437-6.27 0-11.347 4.51-11.347 9.434 0 1.238.32 2.42.9 3.48 1.726-1.494 5.757-2.543 10.447-2.543Z"/><path fill="#54CAF5" d="M18.198 24.021c4.697 0 8.72 1.041 10.439 2.525a7.11 7.11 0 0 0 .9-3.453c0-4.894-5.078-9.378-11.34-9.378-6.26 0-11.33 4.484-11.33 9.376 0 1.23.32 2.405.9 3.456 1.722-1.483 5.747-2.524 10.432-2.524l-.001-.002Z"/><path fill="#5DCCF5" d="M18.198 24.052c4.69 0 8.708 1.033 10.424 2.507a7.041 7.041 0 0 0 .898-3.43c0-4.862-5.071-9.318-11.322-9.318-6.251 0-11.317 4.458-11.317 9.317 0 1.221.32 2.387.898 3.432 1.721-1.473 5.741-2.507 10.419-2.508Z"/><path fill="#65CDF6" d="M18.198 24.08c4.684 0 8.697 1.028 10.412 2.492.58-1.04.896-2.195.896-3.407 0-4.828-5.064-9.259-11.308-9.259s-11.3 4.43-11.3 9.257c0 1.214.32 2.372.896 3.41 1.718-1.463 5.732-2.491 10.404-2.491v-.002Z"/><path fill="#6CCFF6" d="M18.198 24.11c4.676 0 8.685 1.021 10.397 2.475a6.887 6.887 0 0 0 .895-3.384c0-4.796-5.057-9.2-11.292-9.2-6.235 0-11.285 4.404-11.285 9.199 0 1.206.32 2.355.895 3.386 1.715-1.453 5.725-2.474 10.39-2.474v-.002Z"/><path fill="#73D1F6" d="M18.198 24.14c4.67 0 8.673 1.013 10.382 2.456a6.816 6.816 0 0 0 .895-3.36c0-4.764-5.05-9.142-11.276-9.142s-11.271 4.38-11.271 9.142c0 1.197.318 2.338.893 3.363 1.712-1.444 5.718-2.457 10.377-2.458v-.001Z"/><path fill="#7AD2F7" d="M18.198 24.17c4.664 0 8.662 1.006 10.368 2.44a6.73 6.73 0 0 0 .894-3.335c0-4.732-5.044-9.083-11.262-9.083-6.218 0-11.254 4.35-11.254 9.078 0 1.19.318 2.323.892 3.34 1.71-1.434 5.709-2.44 10.362-2.44Z"/><path fill="#81D4F7" d="M18.198 24.2c4.657 0 8.65 1 10.353 2.424a6.667 6.667 0 0 0 .893-3.313c0-4.7-5.037-9.023-11.246-9.023-6.21 0-11.239 4.322-11.239 9.019 0 1.181.319 2.306.891 3.317 1.708-1.424 5.702-2.424 10.348-2.425v.001Z"/><path fill="#88D6F8" d="M18.198 24.23c4.652 0 8.638.993 10.339 2.405.574-1.005.89-2.12.89-3.29 0-4.666-5.029-8.963-11.23-8.963-6.2 0-11.223 4.297-11.223 8.96 0 1.174.318 2.29.89 3.295 1.704-1.414 5.693-2.406 10.332-2.408h.002Z"/><path fill="#8ED8F8" d="M18.198 24.26c4.645 0 8.626.986 10.325 2.39.572-.998.889-2.105.889-3.267 0-4.634-5.023-8.904-11.215-8.904S6.99 18.747 6.99 23.379c0 1.165.317 2.273.888 3.27 1.702-1.403 5.686-2.39 10.32-2.39Z"/><path fill="#94DAF8" d="M18.198 24.288c4.639 0 8.614.98 10.31 2.373.573-.99.888-2.09.888-3.243 0-4.601-5.016-8.847-11.2-8.847-6.183 0-11.19 4.244-11.19 8.844 0 1.157.316 2.257.886 3.248 1.7-1.394 5.679-2.373 10.306-2.375Z"/><path fill="#9BDCF9" d="M18.198 24.319c4.632 0 8.603.973 10.297 2.355a6.374 6.374 0 0 0 .887-3.22c0-4.57-5.01-8.787-11.184-8.787-6.174 0-11.176 4.218-11.176 8.784 0 1.15.317 2.24.885 3.225 1.698-1.384 5.671-2.356 10.291-2.357Z"/><path fill="#A1DDF9" d="M18.198 24.348c4.626 0 8.59.966 10.282 2.34.57-.978.887-2.061.887-3.198 0-4.536-5.002-8.728-11.168-8.728-6.166 0-11.163 4.19-11.163 8.726 0 1.14.315 2.223.884 3.2 1.694-1.373 5.662-2.339 10.276-2.34h.002Z"/><path fill="#A7DFF9" d="M18.198 24.378c4.618 0 8.579.96 10.268 2.323.57-.97.885-2.047.885-3.175 0-4.504-4.996-8.668-11.153-8.668-6.158 0-11.146 4.163-11.146 8.666 0 1.132.315 2.208.882 3.178 1.692-1.364 5.655-2.322 10.264-2.324Z"/><path fill="#ADE1FA" d="M18.198 24.407c4.613 0 8.567.953 10.253 2.305.569-.963.884-2.03.884-3.15 0-4.473-4.989-8.61-11.137-8.61-6.149 0-11.13 4.138-11.13 8.608 0 1.125.315 2.19.88 3.155 1.69-1.354 5.647-2.305 10.25-2.306v-.002Z"/><path fill="#B3E3FA" d="M18.198 24.438c4.607 0 8.556.945 10.239 2.289.567-.956.882-2.016.882-3.128 0-4.44-4.981-8.55-11.121-8.55-6.14 0-11.116 4.11-11.116 8.547 0 1.116.314 2.175.88 3.132 1.687-1.345 5.639-2.289 10.234-2.29h.002Z"/><path fill="#B9E5FA" d="M18.198 24.466c4.6 0 8.545.939 10.225 2.272.566-.95.88-2 .88-3.104 0-4.408-4.975-8.493-11.106-8.493s-11.098 4.086-11.098 8.49c0 1.107.314 2.159.879 3.109 1.685-1.335 5.632-2.272 10.22-2.273Z"/><path fill="#BEE7FB" d="M18.198 24.497c4.594 0 8.533.932 10.21 2.254.566-.943.88-1.985.88-3.082 0-4.374-4.97-8.433-11.091-8.433-6.123 0-11.083 4.06-11.083 8.43 0 1.101.314 2.144.878 3.086 1.682-1.324 5.624-2.254 10.207-2.257l-.001.002Z"/><path fill="#C4E9FB" d="M18.198 24.526c4.587 0 8.521.925 10.197 2.238.564-.936.88-1.97.88-3.058 0-4.343-4.962-8.374-11.076-8.374-6.114 0-11.07 4.031-11.07 8.37 0 1.092.313 2.126.876 3.063 1.68-1.314 5.616-2.238 10.193-2.24Z"/><path fill="#CAEBFC" d="M18.198 24.556c4.581 0 8.51.918 10.183 2.221.563-.928.878-1.955.878-3.035 0-4.31-4.954-8.315-11.06-8.315-6.104 0-11.054 4.006-11.054 8.312 0 1.084.312 2.11.875 3.04 1.677-1.305 5.609-2.222 10.178-2.223Z"/><path fill="#CFEDFC" d="M18.198 24.585c4.574 0 8.497.912 10.168 2.205.563-.922.877-1.94.877-3.012 0-4.277-4.949-8.255-11.045-8.255-6.097 0-11.038 3.978-11.038 8.252 0 1.076.313 2.094.874 3.017 1.674-1.295 5.6-2.206 10.164-2.207Z"/><path fill="#D5EFFC" d="M18.198 24.615c4.568 0 8.485.905 10.154 2.188.56-.915.875-1.926.875-2.989 0-4.244-4.941-8.196-11.03-8.196-6.087 0-11.022 3.95-11.022 8.193 0 1.067.312 2.077.872 2.994 1.671-1.285 5.593-2.188 10.15-2.19Z"/><path fill="#DBF1FD" d="M18.198 24.644c4.561 0 8.474.898 10.14 2.17.56-.907.873-1.91.873-2.965 0-4.212-4.934-8.138-11.013-8.138S7.191 19.638 7.191 23.847c0 1.06.311 2.061.87 2.97 1.67-1.273 5.587-2.17 10.137-2.173Z"/><path fill="#E0F3FD" d="M18.198 24.675c4.555 0 8.462.892 10.125 2.154.558-.9.872-1.896.872-2.942 0-4.18-4.927-8.08-10.999-8.08-6.071 0-10.99 3.9-10.99 8.077 0 1.05.312 2.044.87 2.947 1.667-1.264 5.577-2.155 10.122-2.156Z"/><path fill="#E6F5FD" d="M18.198 24.703c4.55 0 8.45.886 10.11 2.138.559-.895.871-1.882.871-2.92 0-4.147-4.92-8.02-10.982-8.02-6.062 0-10.974 3.873-10.974 8.019 0 1.044.31 2.027.868 2.924 1.664-1.256 5.57-2.138 10.107-2.14Z"/><path fill="#EBF7FE" d="M18.198 24.734c4.542 0 8.439.878 10.097 2.12.557-.888.87-1.866.87-2.897 0-4.115-4.913-7.96-10.966-7.96-6.053 0-10.962 3.846-10.962 7.959 0 1.035.31 2.011.866 2.9 1.662-1.244 5.562-2.12 10.095-2.122Z"/><path fill="#F1FAFE" d="M18.198 24.763c4.536 0 8.427.87 10.083 2.104.555-.88.869-1.851.869-2.873 0-4.082-4.907-7.901-10.951-7.901-6.044 0-10.946 3.819-10.946 7.898 0 1.026.31 1.995.864 2.877 1.659-1.235 5.554-2.104 10.08-2.105Z"/><path fill="#F7FCFE" d="M18.198 24.793c4.53 0 8.416.865 10.069 2.087.555-.874.867-1.835.867-2.85 0-4.05-4.9-7.842-10.936-7.842S7.27 19.979 7.27 24.027c0 1.02.31 1.978.863 2.854 1.658-1.224 5.547-2.086 10.066-2.09v.002Z"/><path fill="#fff" d="M18.198 24.824c4.523 0 8.404.857 10.054 2.069.554-.868.866-1.82.866-2.827 0-4.017-4.893-7.784-10.92-7.784S7.283 20.049 7.283 24.063c0 1.01.31 1.962.862 2.831 1.654-1.214 5.538-2.069 10.051-2.072l.002.002Z"/></g><path fill="#0083CA" d="M18.143 20.815c-3.958 0-7.63.674-10.657 1.81a11.665 11.665 0 0 0 10.66 6.91c4.757 0 8.825-2.839 10.651-6.91-3.028-1.137-6.705-1.81-10.653-1.81h-.001Z"/></g><defs><clipPath id="a"><path fill="#fff" d="M5.875 5.625h24.75v24.487H5.875z"/></clipPath></defs></svg>