<svg width="24" height="24" viewBox="0 0 24 24" fill="none" xmlns="http://www.w3.org/2000/svg">
<path fill-rule="evenodd" clip-rule="evenodd" d="M19.3306 7.26734C19.5018 7.43856 19.5979 7.67077 19.5979 7.91288C19.5979 8.155 19.5018 8.3872 19.3306 8.55843L10.6564 17.2327C10.4851 17.4038 10.2529 17.5 10.0108 17.5C9.76871 17.5 9.53651 17.4038 9.36528 17.2327L5.25643 13.1238C5.09011 12.9516 4.99808 12.721 5.00016 12.4816C5.00224 12.2421 5.09826 12.0131 5.26756 11.8438C5.43685 11.6746 5.66586 11.5785 5.90527 11.5764C6.14467 11.5744 6.37532 11.6664 6.54753 11.8327L10.0108 15.296L18.0395 7.26734C18.2107 7.09616 18.4429 7 18.6851 7C18.9272 7 19.1594 7.09616 19.3306 7.26734Z" fill="#D9D9D9"/>
<path fill-rule="evenodd" clip-rule="evenodd" d="M18.2163 7.44414L10.0108 15.6496L6.37241 12.0112C6.24751 11.8913 6.08063 11.8249 5.90744 11.8264C5.73358 11.8279 5.56727 11.8977 5.44433 12.0206C5.32139 12.1436 5.25166 12.3099 5.25015 12.4837C5.24864 12.6569 5.31496 12.8238 5.43486 12.9487L9.54203 17.0559C9.66638 17.1802 9.83502 17.25 10.0108 17.25C10.1866 17.25 10.3553 17.1802 10.4796 17.0559M19.1538 8.38165L10.4796 17.0559L19.1538 8.38165ZM19.1538 8.38165C19.2781 8.25731 19.3479 8.08869 19.3479 7.91288C19.3479 7.73708 19.2781 7.56848 19.1539 7.44414M19.1539 7.44414C19.0295 7.31987 18.8609 7.25 18.6851 7.25C18.5093 7.25 18.3406 7.31985 18.2163 7.44414M17.8628 7.09053C18.0809 6.87249 18.3767 6.75 18.6851 6.75C18.9935 6.75 19.2893 6.87249 19.5074 7.09053C19.7254 7.30864 19.8479 7.60448 19.8479 7.91288C19.8479 8.22129 19.7255 8.51707 19.5074 8.73518L10.8331 17.4094C10.615 17.6275 10.3192 17.75 10.0108 17.75C9.70242 17.75 9.40664 17.6275 9.18853 17.4095L5.07658 13.2975C4.86472 13.0782 4.74752 12.7843 4.75017 12.4794C4.75282 12.1744 4.87514 11.8827 5.09078 11.6671C5.30642 11.4514 5.59814 11.3291 5.90309 11.3265C6.20805 11.3238 6.50184 11.441 6.7212 11.6529L6.72433 11.6559L10.0108 14.9425L17.8628 7.09053Z" fill="#D9D9D9"/>
</svg>
