<svg width="36" height="36" viewBox="0 0 36 36" fill="none" xmlns="http://www.w3.org/2000/svg">
<path fill-rule="evenodd" clip-rule="evenodd" d="M14.0708 12.3431C13.6803 11.9526 13.0471 11.9526 12.6566 12.3431C12.2661 12.7337 12.2661 13.3668 12.6566 13.7574L16.8992 18L12.6566 22.2426C12.2661 22.6332 12.2661 23.2663 12.6566 23.6569C13.0471 24.0474 13.6803 24.0474 14.0708 23.6569L18.3135 19.4142L22.5561 23.6569C22.9466 24.0474 23.5798 24.0474 23.9703 23.6569C24.3608 23.2663 24.3608 22.6332 23.9703 22.2426L19.7277 18L23.9703 13.7574C24.3608 13.3668 24.3608 12.7337 23.9703 12.3431C23.5798 11.9526 22.9466 11.9526 22.5561 12.3431L18.3135 16.5858L14.0708 12.3431Z" fill="#545454"/>
</svg>
