<svg width="24" height="24" viewBox="0 0 24 24" fill="none" xmlns="http://www.w3.org/2000/svg">
<g id="ico/arrow">
<g id="Vector">
<path d="M17.7943 8.69186C17.8625 8.62739 17.9428 8.57699 18.0305 8.54354C18.1182 8.51009 18.2116 8.49423 18.3054 8.49689C18.3992 8.49954 18.4916 8.52065 18.5773 8.55901C18.663 8.59736 18.7402 8.65222 18.8047 8.72044C18.8692 8.78866 18.9196 8.86891 18.953 8.95661C18.9865 9.04431 19.0023 9.13774 18.9997 9.23156C18.997 9.32539 18.9759 9.41777 18.9375 9.50344C18.8992 9.58911 18.8443 9.66638 18.7761 9.73085L12.345 15.8047C12.2123 15.9301 12.0366 16 11.854 16C11.6715 16 11.4958 15.9301 11.3631 15.8047L4.93125 9.73085C4.86154 9.6668 4.80524 9.58955 4.76564 9.50357C4.72603 9.41758 4.70391 9.32459 4.70055 9.22998C4.69718 9.13538 4.71266 9.04105 4.74606 8.95247C4.77946 8.86389 4.83013 8.78284 4.89512 8.71401C4.96012 8.64518 5.03814 8.58995 5.12466 8.55153C5.21118 8.51311 5.30447 8.49227 5.39911 8.49021C5.49375 8.48815 5.58786 8.50491 5.67597 8.53953C5.76408 8.57414 5.84443 8.62592 5.91236 8.69186L11.854 14.3027L17.7943 8.69186Z" fill="#545454"/>
<path fill-rule="evenodd" clip-rule="evenodd" d="M19.1996 9.23722C19.203 9.11714 19.1827 8.99757 19.1399 8.88533C19.0971 8.77309 19.0326 8.67039 18.9501 8.58308C18.8676 8.49576 18.7687 8.42556 18.659 8.37647C18.5494 8.32738 18.4311 8.30036 18.3111 8.29697C18.191 8.29357 18.0714 8.31386 17.9592 8.35667C17.8469 8.39949 17.7442 8.46399 17.6569 8.54649L11.854 14.0276L6.05061 8.54733C5.96389 8.46342 5.86142 8.39751 5.74911 8.35338C5.63634 8.30907 5.51589 8.28762 5.39476 8.29026C5.27362 8.29289 5.15422 8.31957 5.04349 8.36875C4.93276 8.41792 4.8329 8.48861 4.74971 8.5767C4.66653 8.66479 4.60168 8.76853 4.55892 8.8819C4.51617 8.99527 4.49637 9.116 4.50067 9.23709C4.50497 9.35817 4.53329 9.47719 4.58398 9.58724C4.63447 9.69685 4.70615 9.79538 4.79489 9.87716L11.2257 15.95M12.4824 15.95L18.9134 9.87625C19.0007 9.79374 19.071 9.69481 19.1201 9.58517C19.1692 9.47553 19.1962 9.3573 19.1996 9.23722M12.4824 15.95L12.345 15.8047L12.4824 15.95Z" fill="#545454"/>
</g>
</g>
</svg>
