<svg width="9" height="16" viewBox="0 0 9 16" fill="none" xmlns="http://www.w3.org/2000/svg">
<path d="M8.30818 2.20566C8.37265 2.13744 8.42305 2.05719 8.4565 1.96949C8.48995 1.88179 8.50581 1.78837 8.50315 1.69454C8.5005 1.60072 8.47939 1.50833 8.44103 1.42266C8.40267 1.337 8.34782 1.25972 8.2796 1.19526C8.21138 1.13079 8.13113 1.08039 8.04343 1.04694C7.95573 1.01348 7.8623 0.997632 7.76848 1.00029C7.67465 1.00294 7.58227 1.02405 7.4966 1.06241C7.41093 1.10076 7.33366 1.15562 7.26919 1.22384L1.19532 7.655C1.06989 7.78767 1 7.96333 1 8.14591C1 8.32849 1.06989 8.50415 1.19532 8.63682L7.26919 15.0687C7.33323 15.1384 7.41049 15.1947 7.49647 15.2343C7.58245 15.2739 7.67545 15.296 7.77005 15.2994C7.86466 15.3028 7.95899 15.2873 8.04757 15.2539C8.13614 15.2205 8.2172 15.1698 8.28603 15.1048C8.35486 15.0398 8.41008 14.9618 8.4485 14.8753C8.48692 14.7888 8.50777 14.6955 8.50983 14.6008C8.51189 14.5062 8.49513 14.4121 8.46051 14.324C8.42589 14.2359 8.37411 14.1555 8.30818 14.0876L2.69736 8.14591L8.30818 2.20566Z" fill="#231916" stroke="#231916" stroke-width="0.4"/>
</svg>
