<svg xmlns="http://www.w3.org/2000/svg" width="69" height="30" fill="none"><g clip-path="url(#a)"><path fill="#231916" d="M36.433 13.07h9.183c.3 0 .545.247.545.546v1.522H37.44c-.715 0-1.291.576-1.291 1.291s.576 1.29 1.29 1.29h8.722v2.398c0 .715.577 1.291 1.291 1.291.715 0 1.291-.576 1.291-1.29v-6.494a3.135 3.135 0 0 0-3.127-3.127h-9.183c-.714 0-1.29.576-1.29 1.29 0 .715.576 1.292 1.29 1.292v-.008Z"/><path fill="#231916" d="M48.713 22.453h-5.58v-2.136c0-.714-.575-1.29-1.29-1.29-.715 0-1.291.576-1.291 1.29v2.136h-5.371c-.715 0-1.291.577-1.291 1.291 0 .715.576 1.291 1.29 1.291h13.533c.714 0 1.29-.576 1.29-1.29 0-.715-.576-1.292-1.29-1.292ZM53.377 20.079a1.3 1.3 0 0 0 1.813-.215l4.918-6.255 4.918 6.255c.246.315.615.492 1.015.492.292 0 .568-.093.799-.277.269-.215.445-.515.484-.86a1.293 1.293 0 0 0-.269-.954l-5.932-7.545a1.274 1.274 0 0 0-1.015-.492c-.4 0-.768.177-1.014.492l-5.932 7.545a1.284 1.284 0 0 0-.27.953c.04.346.216.646.485.861ZM67.232 22.3H52.97c-.715 0-1.291.576-1.291 1.29 0 .715.576 1.292 1.29 1.292h14.263c.714 0 1.29-.577 1.29-1.291 0-.715-.576-1.291-1.29-1.291ZM20.993 29.308H9.33c-2.306 0-4.672-1.721-5.387-3.912L.338 14.3c-.715-2.197.192-4.979 2.06-6.331l9.436-6.855c1.867-1.36 4.795-1.352 6.662 0l9.436 6.855c1.868 1.36 2.774 4.141 2.06 6.331L26.388 25.39C25.673 27.587 23.306 29.3 21 29.3l-.008.008Z"/><path fill="#231916" d="M20.994 29.4H9.329c-2.344 0-4.757-1.752-5.48-3.98L.247 14.33c-.722-2.228.192-5.063 2.09-6.439l9.436-6.854c1.898-1.375 4.872-1.383 6.77 0l.238.177 9.198 6.677c1.898 1.376 2.82 4.211 2.09 6.44l-3.603 11.088c-.723 2.229-3.136 3.98-5.48 3.98h.009ZM15.16.192c-1.176 0-2.359.33-3.273.999L2.45 8.045C.615 9.375-.269 12.11.431 14.27l3.603 11.089c.7 2.16 3.028 3.85 5.295 3.85h11.665c2.266 0 4.595-1.69 5.294-3.85l3.604-11.089c.7-2.159-.185-4.894-2.021-6.224l-9.49-6.893c-.907-.645-2.067-.96-3.22-.96Z"/><path fill="#FABE00" d="m26.357 10.12-9.436-6.854c-.446-.323-1.091-.515-1.76-.515-.668 0-1.306.184-1.76.515L3.965 10.12c-.937.684-1.445 2.252-1.091 3.35L6.478 24.56c.361 1.107 1.69 2.075 2.85 2.075h11.665c1.16 0 2.498-.968 2.851-2.075l3.604-11.089c.361-1.106-.154-2.674-1.091-3.35Z"/><path fill="#231916" d="m17.06 17.989 4.24-4.357c.562-.576.546-1.49-.03-2.044a1.438 1.438 0 0 0-2.044.03l-7.723 7.93V9.722c0-.8-.645-1.445-1.444-1.445-.8 0-1.445.645-1.445 1.445v13.393c0 .592.354 1.122.9 1.337a1.448 1.448 0 0 0 1.583-.33l3.949-4.057 4.188 4.057c.284.292.66.438 1.037.438a1.445 1.445 0 0 0 1.037-2.451l-4.241-4.111-.008-.008Z"/><path fill="#231916" d="M14.892 23.13h-1.59v1.59h1.59v-1.59ZM17.013 23.13h-1.59v1.59h1.59v-1.59Z"/></g><defs><clipPath id="a"><path fill="#fff" d="M0 0h69v30H0z"/></clipPath></defs></svg>