<svg width="25" height="24" viewBox="0 0 25 24" fill="none" xmlns="http://www.w3.org/2000/svg">
<path fill-rule="evenodd" clip-rule="evenodd" d="M11.1162 4.68493C9.47701 4.68493 7.90498 5.33609 6.74591 6.49516C5.58684 7.65423 4.93568 9.22626 4.93568 10.8654C4.93568 12.5046 5.58684 14.0766 6.74591 15.2357C7.90498 16.3948 9.47701 17.0459 11.1162 17.0459C12.7554 17.0459 14.3274 16.3948 15.4865 15.2357C16.6455 14.0766 17.2967 12.5046 17.2967 10.8654C17.2967 9.22626 16.6455 7.65423 15.4865 6.49516C14.3274 5.33609 12.7554 4.68493 11.1162 4.68493ZM3.25009 10.8654C3.2502 9.60761 3.55194 8.36815 4.13 7.25103C4.70807 6.13391 5.5456 5.1717 6.57234 4.44512C7.59908 3.71854 8.78509 3.24878 10.0309 3.07523C11.2767 2.90169 12.5459 3.02943 13.7322 3.44773C14.9184 3.86603 15.987 4.56271 16.8484 5.47931C17.7097 6.39591 18.3387 7.50571 18.6826 8.71562C19.0265 9.92552 19.0752 11.2002 18.8247 12.4329C18.5741 13.6655 18.0317 14.8201 17.2427 15.7997L20.9825 19.5406C21.0653 19.6178 21.1317 19.7108 21.1778 19.8142C21.2239 19.9176 21.2486 20.0292 21.2506 20.1423C21.2526 20.2555 21.2318 20.3679 21.1894 20.4728C21.147 20.5778 21.0839 20.6731 21.0039 20.7532C20.9239 20.8332 20.8285 20.8963 20.7236 20.9387C20.6187 20.9811 20.5063 21.0019 20.3931 20.9999C20.2799 20.9979 20.1683 20.9731 20.0649 20.927C19.9616 20.881 19.8685 20.8146 19.7914 20.7318L16.0505 16.992C14.8948 17.9229 13.4993 18.5078 12.0253 18.6793C10.5513 18.8509 9.05878 18.6019 7.72022 17.9612C6.38167 17.3206 5.25164 16.3143 4.46065 15.0587C3.66967 13.8031 3.24999 12.3494 3.25009 10.8654Z" fill="#A3A3A3" stroke="#A3A3A3" stroke-width="0.5"/>
</svg>
