<svg width="24" height="24" viewBox="0 0 24 24" fill="none" xmlns="http://www.w3.org/2000/svg">
<g clip-path="url(#clip0_351_773)">
<circle cx="12" cy="12" r="12" fill="#E33F28"/>
<g clip-path="url(#clip1_351_773)">
<path fill-rule="evenodd" clip-rule="evenodd" d="M8.22253 7.02196C7.87887 6.6783 7.32169 6.6783 6.97803 7.02196C6.63437 7.36563 6.63437 7.92281 6.97803 8.26647L10.7115 12L6.97803 15.7335C6.63437 16.0772 6.63437 16.6344 6.97803 16.978C7.32169 17.3217 7.87887 17.3217 8.22253 16.978L11.9561 13.2445L15.6896 16.978C16.0332 17.3217 16.5904 17.3217 16.9341 16.978C17.2777 16.6344 17.2777 16.0772 16.9341 15.7335L13.2006 12L16.9341 8.26647C17.2777 7.92281 17.2777 7.36563 16.9341 7.02196C16.5904 6.6783 16.0332 6.6783 15.6896 7.02196L11.9561 10.7555L8.22253 7.02196Z" fill="white"/>
</g>
</g>
<defs>
<clipPath id="clip0_351_773">
<rect width="24" height="24" fill="white"/>
</clipPath>
<clipPath id="clip1_351_773">
<rect width="16" height="16" fill="white" transform="translate(4 4)"/>
</clipPath>
</defs>
</svg>
