<svg width="8" height="16" viewBox="0 0 8 16" fill="none" xmlns="http://www.w3.org/2000/svg">
<path d="M0.691857 2.20571C0.627389 2.13749 0.576991 2.05724 0.543538 1.96954C0.510085 1.88184 0.494232 1.78841 0.496886 1.69459C0.49954 1.60076 0.520649 1.50838 0.559006 1.42271C0.597363 1.33705 0.652219 1.25977 0.72044 1.19531C0.78866 1.13084 0.868912 1.08044 0.956611 1.04699C1.04431 1.01353 1.13774 0.99768 1.23156 1.00033C1.32539 1.00299 1.41777 1.0241 1.50344 1.06245C1.58911 1.10081 1.66638 1.15567 1.73085 1.22389L7.80472 7.65505C7.93015 7.78772 8.00004 7.96338 8.00004 8.14596C8.00004 8.32854 7.93015 8.5042 7.80472 8.63687L1.73085 15.0687C1.6668 15.1385 1.58955 15.1948 1.50357 15.2344C1.41758 15.274 1.32459 15.2961 1.22998 15.2995C1.13538 15.3028 1.04105 15.2873 0.952471 15.2539C0.863895 15.2205 0.782839 15.1699 0.714011 15.1049C0.645183 15.0399 0.589954 14.9619 0.551535 14.8753C0.513115 14.7888 0.492269 14.6955 0.490208 14.6009C0.488147 14.5062 0.504911 14.4121 0.539528 14.324C0.574145 14.2359 0.625924 14.1556 0.691857 14.0876L6.30268 8.14596L0.691857 2.20571Z" fill="#F0F0F0"/>
<path fill-rule="evenodd" clip-rule="evenodd" d="M1.23722 0.800415C1.11714 0.797018 0.997568 0.817306 0.88533 0.860119C0.773093 0.902933 0.670385 0.967435 0.583075 1.04994C0.495764 1.13245 0.42556 1.23134 0.376469 1.34098C0.327379 1.45062 0.300364 1.56885 0.296967 1.68893C0.29357 1.80901 0.313858 1.92859 0.356672 2.04082C0.399486 2.15306 0.463987 2.25577 0.546494 2.34308L6.02759 8.14598L0.547326 13.9494C0.463424 14.0361 0.397508 14.1386 0.35338 14.2509C0.309074 14.3637 0.287618 14.4841 0.290256 14.6052C0.292894 14.7264 0.319574 14.8458 0.368748 14.9565C0.417921 15.0672 0.488606 15.1671 0.576699 15.2503C0.664791 15.3335 0.768534 15.3983 0.881901 15.4411C0.995268 15.4838 1.116 15.5036 1.23709 15.4993C1.35817 15.495 1.47719 15.4667 1.58724 15.416C1.69685 15.3655 1.79538 15.2938 1.87716 15.2051L7.95005 8.77427M7.95005 7.51765L1.87625 1.08656C1.79374 0.999253 1.69481 0.929007 1.58517 0.879917C1.47553 0.830826 1.3573 0.803811 1.23722 0.800415M7.95005 7.51765L7.80472 7.65505L7.95005 7.51765Z" fill="#F0F0F0"/>
</svg>
